STARTFONT 2.1
FONT -FontForge-Bebas Neue-Book-R-Normal--26-250-75-75-P-101-ISO10646-1
SIZE 25 75 75
FONTBOUNDINGBOX 27 30 -5 -6
COMMENT "Generated by fontforge, http://fontforge.sourceforge.net"
COMMENT "Copyright 2019 The Bebas Neue Project Authors (https://github.com/dharmatype/Bebas-Neue)"
STARTPROPERTIES 40
FOUNDRY "FontForge"
FAMILY_NAME "Bebas Neue"
WEIGHT_NAME "Book"
SLANT "R"
SETWIDTH_NAME "Normal"
ADD_STYLE_NAME ""
PIXEL_SIZE 26
POINT_SIZE 250
RESOLUTION_X 75
RESOLUTION_Y 75
SPACING "P"
AVERAGE_WIDTH 101
CHARSET_REGISTRY "ISO10646"
CHARSET_ENCODING "1"
FONTNAME_REGISTRY ""
CHARSET_COLLECTIONS "ISO8859-2 ISO8859-9 ISO8859-4 Symbol ISO10646-1"
FONT_NAME "BebasNeue-Regular"
FACE_NAME "Bebas Neue Regular"
COPYRIGHT "Copyright 2019 The Bebas Neue Project Authors (https://github.com/dharmatype/Bebas-Neue)"
FONT_VERSION "2.000"
FONT_ASCENT 21
FONT_DESCENT 5
UNDERLINE_POSITION -2
UNDERLINE_THICKNESS 3
X_HEIGHT 18
CAP_HEIGHT 18
RAW_ASCENT 800
RAW_DESCENT 200
NORM_SPACE 4
RELATIVE_WEIGHT 40
RELATIVE_SETWIDTH 50
SUPERSCRIPT_X 0
SUPERSCRIPT_Y 9
SUPERSCRIPT_SIZE 15
SUBSCRIPT_X 0
SUBSCRIPT_Y 1
SUBSCRIPT_SIZE 15
FIGURE_WIDTH 10
AVG_LOWERCASE_WIDTH 106
AVG_UPPERCASE_WIDTH 112
ENDPROPERTIES
CHARS 554
STARTCHAR nonmarkingreturn
ENCODING 13
SWIDTH 160 0
DWIDTH 4 0
BBX 1 1 0 0
BITMAP
00
ENDCHAR
STARTCHAR space
ENCODING 32
SWIDTH 160 0
DWIDTH 4 0
BBX 1 1 0 0
BITMAP
00
ENDCHAR
STARTCHAR exclam
ENCODING 33
SWIDTH 210 0
DWIDTH 5 0
BBX 3 19 1 0
BITMAP
E0
E0
E0
E0
E0
E0
E0
E0
E0
E0
E0
60
60
60
00
00
E0
E0
E0
ENDCHAR
STARTCHAR quotedbl
ENCODING 34
SWIDTH 336 0
DWIDTH 9 0
BBX 7 6 1 13
BITMAP
EE
EE
EC
EC
CC
4C
ENDCHAR
STARTCHAR numbersign
ENCODING 35
SWIDTH 412 0
DWIDTH 11 0
BBX 10 19 0 0
BITMAP
1980
1980
1980
1980
7FC0
7FC0
7FC0
3B80
3380
3300
3300
7FC0
7FC0
FF80
3300
3300
7300
7700
6700
ENDCHAR
STARTCHAR dollar
ENCODING 36
SWIDTH 400 0
DWIDTH 10 0
BBX 8 21 1 -1
BITMAP
18
18
7E
7F
E7
E3
E0
E0
70
78
3E
1E
0F
07
E3
E3
E7
FF
7E
18
18
ENDCHAR
STARTCHAR percent
ENCODING 37
SWIDTH 589 0
DWIDTH 15 0
BBX 13 19 1 0
BITMAP
7060
F860
C8C0
C8C0
C880
C980
C980
CB00
DB70
FBF8
76D8
06C8
04C8
0CC8
0CC8
08C8
18C8
18F8
3070
ENDCHAR
STARTCHAR ampersand
ENCODING 38
SWIDTH 417 0
DWIDTH 11 0
BBX 9 19 1 0
BITMAP
3F00
7F00
FF00
E000
E000
E380
E380
7F80
3F80
7F80
E380
E380
E380
E380
E380
E780
FF80
FF80
7B80
ENDCHAR
STARTCHAR quotesingle
ENCODING 39
SWIDTH 188 0
DWIDTH 5 0
BBX 3 6 1 13
BITMAP
E0
E0
E0
E0
C0
40
ENDCHAR
STARTCHAR parenleft
ENCODING 40
SWIDTH 276 0
DWIDTH 7 0
BBX 5 22 1 -1
BITMAP
18
78
78
E0
E0
E0
E0
E0
E0
E0
E0
E0
E0
E0
E0
E0
E0
E0
E0
78
78
38
ENDCHAR
STARTCHAR parenright
ENCODING 41
SWIDTH 276 0
DWIDTH 7 0
BBX 5 22 1 -1
BITMAP
C0
F0
F8
38
38
38
38
38
38
38
38
38
38
38
38
38
38
38
38
F8
F0
E0
ENDCHAR
STARTCHAR asterisk
ENCODING 42
SWIDTH 422 0
DWIDTH 11 0
BBX 11 10 0 9
BITMAP
0E00
0C00
4440
64C0
FFE0
0E00
0A00
1B00
3180
1100
ENDCHAR
STARTCHAR plus
ENCODING 43
SWIDTH 400 0
DWIDTH 10 0
BBX 9 9 1 5
BITMAP
1800
1800
1800
FF80
FF80
FF80
1800
1800
1800
ENDCHAR
STARTCHAR comma
ENCODING 44
SWIDTH 188 0
DWIDTH 5 0
BBX 3 6 1 -3
BITMAP
E0
E0
E0
40
40
C0
ENDCHAR
STARTCHAR hyphen
ENCODING 45
SWIDTH 270 0
DWIDTH 7 0
BBX 5 3 1 8
BITMAP
F8
F8
F8
ENDCHAR
STARTCHAR period
ENCODING 46
SWIDTH 188 0
DWIDTH 5 0
BBX 3 3 1 0
BITMAP
E0
E0
E0
ENDCHAR
STARTCHAR slash
ENCODING 47
SWIDTH 389 0
DWIDTH 10 0
BBX 10 19 0 0
BITMAP
01C0
0180
0380
0380
0300
0700
0600
0600
0E00
0C00
1C00
1C00
1800
3800
3000
3000
7000
6000
E000
ENDCHAR
STARTCHAR zero
ENCODING 48
SWIDTH 400 0
DWIDTH 10 0
BBX 9 19 1 0
BITMAP
3C00
7F00
FF00
E300
E380
E380
E380
E380
E380
E380
E380
E380
E380
E380
E380
E300
FF00
7F00
3C00
ENDCHAR
STARTCHAR one
ENCODING 49
SWIDTH 400 0
DWIDTH 10 0
BBX 6 19 2 0
BITMAP
0C
1C
FC
FC
FC
1C
1C
1C
1C
1C
1C
1C
1C
1C
1C
1C
1C
1C
1C
ENDCHAR
STARTCHAR two
ENCODING 50
SWIDTH 400 0
DWIDTH 10 0
BBX 9 19 1 0
BITMAP
3E00
7F00
FF00
E700
E380
E380
E700
0700
0F00
0E00
1C00
3800
7000
7000
E000
E000
FF00
FF00
FF00
ENDCHAR
STARTCHAR three
ENCODING 51
SWIDTH 400 0
DWIDTH 10 0
BBX 8 19 1 0
BITMAP
3C
7F
FF
E7
E7
07
07
1F
1C
1F
07
07
03
E3
E7
E7
FF
7F
3C
ENDCHAR
STARTCHAR four
ENCODING 52
SWIDTH 400 0
DWIDTH 10 0
BBX 10 19 0 0
BITMAP
0780
0780
0780
0F80
0F80
1F80
1B80
1B80
3B80
3380
7380
7380
6380
FFC0
FFC0
FFC0
0380
0380
0380
ENDCHAR
STARTCHAR five
ENCODING 53
SWIDTH 400 0
DWIDTH 10 0
BBX 9 19 1 0
BITMAP
FF00
FF00
FF00
E000
E000
E000
EE00
FF00
FF00
E700
E380
0380
0380
E380
E380
E700
FF00
7F00
3C00
ENDCHAR
STARTCHAR six
ENCODING 54
SWIDTH 400 0
DWIDTH 10 0
BBX 9 19 1 0
BITMAP
3E00
7F00
FF00
E300
E380
E000
E000
EE00
FF00
FF00
E380
E380
E380
E380
E380
E380
FF00
7F00
3E00
ENDCHAR
STARTCHAR seven
ENCODING 55
SWIDTH 400 0
DWIDTH 10 0
BBX 8 19 1 0
BITMAP
FF
FF
FF
07
07
07
06
0E
0E
0E
1C
1C
1C
18
38
38
38
70
70
ENDCHAR
STARTCHAR eight
ENCODING 56
SWIDTH 400 0
DWIDTH 10 0
BBX 9 19 1 0
BITMAP
3E00
7F00
FF00
E300
E380
E380
E300
FF00
7E00
7F00
E700
E380
E380
E380
E380
E380
FF00
7F00
3E00
ENDCHAR
STARTCHAR nine
ENCODING 57
SWIDTH 400 0
DWIDTH 10 0
BBX 8 19 1 0
BITMAP
3C
7F
FF
E7
E3
E3
E3
E3
E7
FF
FB
7B
03
03
E3
E7
FF
7F
3C
ENDCHAR
STARTCHAR colon
ENCODING 58
SWIDTH 188 0
DWIDTH 5 0
BBX 3 13 1 0
BITMAP
E0
E0
E0
00
00
00
00
00
00
00
E0
E0
E0
ENDCHAR
STARTCHAR semicolon
ENCODING 59
SWIDTH 188 0
DWIDTH 5 0
BBX 3 16 1 -3
BITMAP
E0
E0
E0
00
00
00
00
00
00
00
E0
E0
E0
40
C0
80
ENDCHAR
STARTCHAR less
ENCODING 60
SWIDTH 400 0
DWIDTH 10 0
BBX 8 9 1 5
BITMAP
01
03
1F
7C
E0
F0
7C
0F
03
ENDCHAR
STARTCHAR equal
ENCODING 61
SWIDTH 400 0
DWIDTH 10 0
BBX 8 7 1 6
BITMAP
FF
FF
FF
00
FF
FF
FF
ENDCHAR
STARTCHAR greater
ENCODING 62
SWIDTH 400 0
DWIDTH 10 0
BBX 8 9 1 5
BITMAP
80
E0
F8
1E
07
0F
3E
F8
C0
ENDCHAR
STARTCHAR question
ENCODING 63
SWIDTH 363 0
DWIDTH 9 0
BBX 9 19 0 0
BITMAP
3E00
7F00
7F80
6380
E380
E380
E380
0700
0700
0E00
0C00
1C00
1C00
1C00
0000
0000
1C00
1C00
1C00
ENDCHAR
STARTCHAR at
ENCODING 64
SWIDTH 696 0
DWIDTH 18 0
BBX 16 22 1 -2
BITMAP
01E0
07FC
1FFE
3C0E
3807
7003
63BB
E7F3
E7F3
C633
CE33
CE73
CE73
CE77
CFFE
CFFC
E738
7000
780C
3FF8
1FF8
07E0
ENDCHAR
STARTCHAR A
ENCODING 65
SWIDTH 401 0
DWIDTH 10 0
BBX 10 19 0 0
BITMAP
1E00
1E00
1F00
1F00
1F00
3F00
3B00
3B00
3300
3380
3380
7380
7380
7F80
7F80
7FC0
61C0
61C0
E1C0
ENDCHAR
STARTCHAR B
ENCODING 66
SWIDTH 404 0
DWIDTH 11 0
BBX 9 19 1 0
BITMAP
FE00
FF00
FF00
E380
E380
E380
E380
E700
FF00
FE00
FF00
E380
E380
E380
E380
E380
FF80
FF00
FE00
ENDCHAR
STARTCHAR C
ENCODING 67
SWIDTH 383 0
DWIDTH 10 0
BBX 8 19 1 0
BITMAP
3C
7E
FF
E7
E3
E3
E3
E0
E0
E0
E0
E0
E3
E3
E3
E7
FF
7E
3C
ENDCHAR
STARTCHAR D
ENCODING 68
SWIDTH 406 0
DWIDTH 11 0
BBX 9 19 1 0
BITMAP
FE00
FF00
FF00
E380
E380
E380
E380
E380
E380
E380
E380
E380
E380
E380
E380
E380
FF00
FF00
FE00
ENDCHAR
STARTCHAR E
ENCODING 69
SWIDTH 363 0
DWIDTH 9 0
BBX 8 19 1 0
BITMAP
FF
FF
FF
E0
E0
E0
E0
E0
FE
FE
FE
E0
E0
E0
E0
E0
FF
FF
FF
ENDCHAR
STARTCHAR F
ENCODING 70
SWIDTH 344 0
DWIDTH 9 0
BBX 8 19 1 0
BITMAP
FF
FF
FF
E0
E0
E0
E0
E0
FE
FE
FE
E0
E0
E0
E0
E0
E0
E0
E0
ENDCHAR
STARTCHAR G
ENCODING 71
SWIDTH 391 0
DWIDTH 10 0
BBX 8 19 1 0
BITMAP
3C
7F
FF
E3
E3
E3
E0
E0
EF
EF
EF
E3
E3
E3
E3
E3
FF
7F
3C
ENDCHAR
STARTCHAR H
ENCODING 72
SWIDTH 420 0
DWIDTH 11 0
BBX 9 19 1 0
BITMAP
E380
E380
E380
E380
E380
E380
E380
E380
FF80
FF80
FF80
E380
E380
E380
E380
E380
E380
E380
E380
ENDCHAR
STARTCHAR I
ENCODING 73
SWIDTH 192 0
DWIDTH 5 0
BBX 3 19 1 0
BITMAP
E0
E0
E0
E0
E0
E0
E0
E0
E0
E0
E0
E0
E0
E0
E0
E0
E0
E0
E0
ENDCHAR
STARTCHAR J
ENCODING 74
SWIDTH 265 0
DWIDTH 7 0
BBX 6 19 0 0
BITMAP
1C
1C
1C
1C
1C
1C
1C
1C
1C
1C
1C
1C
1C
1C
1C
1C
FC
F8
F0
ENDCHAR
STARTCHAR K
ENCODING 75
SWIDTH 414 0
DWIDTH 11 0
BBX 9 19 1 0
BITMAP
E380
E380
E700
E700
E600
EE00
EC00
FC00
FC00
FE00
FE00
FE00
E700
E700
E700
E700
E380
E380
E380
ENDCHAR
STARTCHAR L
ENCODING 76
SWIDTH 344 0
DWIDTH 9 0
BBX 8 19 1 0
BITMAP
E0
E0
E0
E0
E0
E0
E0
E0
E0
E0
E0
E0
E0
E0
E0
E0
FF
FF
FF
ENDCHAR
STARTCHAR M
ENCODING 77
SWIDTH 538 0
DWIDTH 14 0
BBX 12 19 1 0
BITMAP
F0F0
F0F0
F0F0
F9F0
F9F0
F9F0
F9F0
F9F0
F9F0
F9F0
FF70
EF70
EF70
EF70
EF70
EF70
EE70
EE70
E670
ENDCHAR
STARTCHAR N
ENCODING 78
SWIDTH 427 0
DWIDTH 11 0
BBX 9 19 1 0
BITMAP
F380
F380
F380
FB80
FB80
FB80
FB80
FB80
FF80
EF80
EF80
EF80
EF80
E780
E780
E780
E780
E380
E380
ENDCHAR
STARTCHAR O
ENCODING 79
SWIDTH 400 0
DWIDTH 10 0
BBX 9 19 1 0
BITMAP
3C00
7F00
FF00
E300
E380
E380
E380
E380
E380
E380
E380
E380
E380
E380
E380
E300
FF00
7F00
3C00
ENDCHAR
STARTCHAR P
ENCODING 80
SWIDTH 386 0
DWIDTH 10 0
BBX 9 19 1 0
BITMAP
FE00
FF00
FF00
E300
E380
E380
E380
E380
E700
FF00
FE00
F800
E000
E000
E000
E000
E000
E000
E000
ENDCHAR
STARTCHAR Q
ENCODING 81
SWIDTH 400 0
DWIDTH 10 0
BBX 9 21 1 -2
BITMAP
3C00
7F00
FF00
E300
E380
E380
E380
E380
E380
E380
E380
E380
E380
E380
E380
E300
FF00
7F00
3F80
0380
0080
ENDCHAR
STARTCHAR R
ENCODING 82
SWIDTH 403 0
DWIDTH 10 0
BBX 9 19 1 0
BITMAP
FE00
FF00
FF00
E700
E380
E380
E380
E700
FF00
FE00
FF00
E700
E380
E380
E380
E380
E380
E380
E380
ENDCHAR
STARTCHAR S
ENCODING 83
SWIDTH 372 0
DWIDTH 10 0
BBX 8 19 1 0
BITMAP
3C
FE
FF
E7
C7
E0
E0
F0
78
3C
1E
0F
07
C7
C7
C7
FF
FE
7C
ENDCHAR
STARTCHAR T
ENCODING 84
SWIDTH 364 0
DWIDTH 9 0
BBX 9 19 0 0
BITMAP
FF80
FF80
FF80
1C00
1C00
1C00
1C00
1C00
1C00
1C00
1C00
1C00
1C00
1C00
1C00
1C00
1C00
1C00
1C00
ENDCHAR
STARTCHAR U
ENCODING 85
SWIDTH 402 0
DWIDTH 10 0
BBX 8 19 1 0
BITMAP
E3
E3
E3
E3
E3
E3
E3
E3
E3
E3
E3
E3
E3
E3
E3
E3
FF
7F
3E
ENDCHAR
STARTCHAR V
ENCODING 86
SWIDTH 382 0
DWIDTH 10 0
BBX 10 19 0 0
BITMAP
E1C0
6180
7180
7180
7380
7380
7380
7380
3300
3300
3B00
3B00
3F00
3F00
3F00
1E00
1E00
1E00
1E00
ENDCHAR
STARTCHAR W
ENCODING 87
SWIDTH 557 0
DWIDTH 14 0
BBX 14 19 0 0
BITMAP
E38C
639C
639C
679C
779C
779C
77D8
76D8
76D8
76D8
76D8
36D8
36D8
36F8
3EF8
3CF8
3CF8
3C70
3C70
ENDCHAR
STARTCHAR X
ENCODING 88
SWIDTH 406 0
DWIDTH 11 0
BBX 10 19 0 0
BITMAP
F1C0
71C0
7180
3B80
3B80
3B00
1F00
1F00
1E00
0E00
1E00
1F00
3F00
3F00
3380
7380
7380
61C0
E1C0
ENDCHAR
STARTCHAR Y
ENCODING 89
SWIDTH 394 0
DWIDTH 10 0
BBX 10 19 0 0
BITMAP
E1C0
71C0
7180
7380
3B80
3B00
3F00
1F00
1E00
1E00
0E00
0E00
0E00
0E00
0E00
0E00
0E00
0E00
0E00
ENDCHAR
STARTCHAR Z
ENCODING 90
SWIDTH 362 0
DWIDTH 9 0
BBX 9 19 0 0
BITMAP
7F80
7F80
7F80
0780
0700
0700
0E00
0E00
0E00
1C00
1C00
3800
3800
3800
7000
7000
FF80
FF80
FF80
ENDCHAR
STARTCHAR bracketleft
ENCODING 91
SWIDTH 276 0
DWIDTH 7 0
BBX 4 22 2 -1
BITMAP
F0
F0
F0
C0
C0
C0
C0
C0
C0
C0
C0
C0
C0
C0
C0
C0
C0
C0
C0
F0
F0
F0
ENDCHAR
STARTCHAR backslash
ENCODING 92
SWIDTH 389 0
DWIDTH 10 0
BBX 10 19 0 0
BITMAP
E000
6000
7000
3000
3000
3800
1800
1C00
1C00
0C00
0E00
0600
0600
0700
0300
0380
0380
0180
01C0
ENDCHAR
STARTCHAR bracketright
ENCODING 93
SWIDTH 276 0
DWIDTH 7 0
BBX 5 22 1 -1
BITMAP
F8
F8
F8
38
38
38
38
38
38
38
38
38
38
38
38
38
38
38
38
F8
F8
F8
ENDCHAR
STARTCHAR asciicircum
ENCODING 94
SWIDTH 400 0
DWIDTH 10 0
BBX 10 7 0 12
BITMAP
0C00
1E00
1E00
3B00
3380
7180
E1C0
ENDCHAR
STARTCHAR underscore
ENCODING 95
SWIDTH 300 0
DWIDTH 8 0
BBX 8 3 0 -2
BITMAP
FF
FF
FF
ENDCHAR
STARTCHAR grave
ENCODING 96
SWIDTH 500 0
DWIDTH 13 0
BBX 5 3 3 20
BITMAP
E0
70
38
ENDCHAR
STARTCHAR a
ENCODING 97
SWIDTH 401 0
DWIDTH 10 0
BBX 10 19 0 0
BITMAP
1E00
1E00
1F00
1F00
1F00
3F00
3B00
3B00
3300
3380
3380
7380
7380
7F80
7F80
7FC0
61C0
61C0
E1C0
ENDCHAR
STARTCHAR b
ENCODING 98
SWIDTH 404 0
DWIDTH 11 0
BBX 9 19 1 0
BITMAP
FE00
FF00
FF00
E380
E380
E380
E380
E700
FF00
FE00
FF00
E380
E380
E380
E380
E380
FF80
FF00
FE00
ENDCHAR
STARTCHAR c
ENCODING 99
SWIDTH 383 0
DWIDTH 10 0
BBX 8 19 1 0
BITMAP
3C
7E
FF
E7
E3
E3
E3
E0
E0
E0
E0
E0
E3
E3
E3
E7
FF
7E
3C
ENDCHAR
STARTCHAR d
ENCODING 100
SWIDTH 406 0
DWIDTH 11 0
BBX 9 19 1 0
BITMAP
FE00
FF00
FF00
E380
E380
E380
E380
E380
E380
E380
E380
E380
E380
E380
E380
E380
FF00
FF00
FE00
ENDCHAR
STARTCHAR e
ENCODING 101
SWIDTH 363 0
DWIDTH 9 0
BBX 8 19 1 0
BITMAP
FF
FF
FF
E0
E0
E0
E0
E0
FE
FE
FE
E0
E0
E0
E0
E0
FF
FF
FF
ENDCHAR
STARTCHAR f
ENCODING 102
SWIDTH 344 0
DWIDTH 9 0
BBX 8 19 1 0
BITMAP
FF
FF
FF
E0
E0
E0
E0
E0
FE
FE
FE
E0
E0
E0
E0
E0
E0
E0
E0
ENDCHAR
STARTCHAR g
ENCODING 103
SWIDTH 391 0
DWIDTH 10 0
BBX 8 19 1 0
BITMAP
3C
7F
FF
E3
E3
E3
E0
E0
EF
EF
EF
E3
E3
E3
E3
E3
FF
7F
3C
ENDCHAR
STARTCHAR h
ENCODING 104
SWIDTH 420 0
DWIDTH 11 0
BBX 9 19 1 0
BITMAP
E380
E380
E380
E380
E380
E380
E380
E380
FF80
FF80
FF80
E380
E380
E380
E380
E380
E380
E380
E380
ENDCHAR
STARTCHAR i
ENCODING 105
SWIDTH 192 0
DWIDTH 5 0
BBX 3 19 1 0
BITMAP
E0
E0
E0
E0
E0
E0
E0
E0
E0
E0
E0
E0
E0
E0
E0
E0
E0
E0
E0
ENDCHAR
STARTCHAR j
ENCODING 106
SWIDTH 265 0
DWIDTH 7 0
BBX 6 19 0 0
BITMAP
1C
1C
1C
1C
1C
1C
1C
1C
1C
1C
1C
1C
1C
1C
1C
1C
FC
F8
F0
ENDCHAR
STARTCHAR k
ENCODING 107
SWIDTH 414 0
DWIDTH 11 0
BBX 9 19 1 0
BITMAP
E380
E380
E700
E700
E600
EE00
EC00
FC00
FC00
FE00
FE00
FE00
E700
E700
E700
E700
E380
E380
E380
ENDCHAR
STARTCHAR l
ENCODING 108
SWIDTH 344 0
DWIDTH 9 0
BBX 8 19 1 0
BITMAP
E0
E0
E0
E0
E0
E0
E0
E0
E0
E0
E0
E0
E0
E0
E0
E0
FF
FF
FF
ENDCHAR
STARTCHAR m
ENCODING 109
SWIDTH 538 0
DWIDTH 14 0
BBX 12 19 1 0
BITMAP
F0F0
F0F0
F0F0
F9F0
F9F0
F9F0
F9F0
F9F0
F9F0
F9F0
FF70
EF70
EF70
EF70
EF70
EF70
EE70
EE70
E670
ENDCHAR
STARTCHAR n
ENCODING 110
SWIDTH 427 0
DWIDTH 11 0
BBX 9 19 1 0
BITMAP
F380
F380
F380
FB80
FB80
FB80
FB80
FB80
FF80
EF80
EF80
EF80
EF80
E780
E780
E780
E780
E380
E380
ENDCHAR
STARTCHAR o
ENCODING 111
SWIDTH 400 0
DWIDTH 10 0
BBX 9 19 1 0
BITMAP
3C00
7F00
FF00
E300
E380
E380
E380
E380
E380
E380
E380
E380
E380
E380
E380
E300
FF00
7F00
3C00
ENDCHAR
STARTCHAR p
ENCODING 112
SWIDTH 386 0
DWIDTH 10 0
BBX 9 19 1 0
BITMAP
FE00
FF00
FF00
E300
E380
E380
E380
E380
E700
FF00
FE00
F800
E000
E000
E000
E000
E000
E000
E000
ENDCHAR
STARTCHAR q
ENCODING 113
SWIDTH 400 0
DWIDTH 10 0
BBX 9 21 1 -2
BITMAP
3C00
7F00
FF00
E300
E380
E380
E380
E380
E380
E380
E380
E380
E380
E380
E380
E300
FF00
7F00
3F80
0380
0080
ENDCHAR
STARTCHAR r
ENCODING 114
SWIDTH 403 0
DWIDTH 10 0
BBX 9 19 1 0
BITMAP
FE00
FF00
FF00
E700
E380
E380
E380
E700
FF00
FE00
FF00
E700
E380
E380
E380
E380
E380
E380
E380
ENDCHAR
STARTCHAR s
ENCODING 115
SWIDTH 372 0
DWIDTH 10 0
BBX 8 19 1 0
BITMAP
3C
FE
FF
E7
C7
E0
E0
F0
78
3C
1E
0F
07
C7
C7
C7
FF
FE
7C
ENDCHAR
STARTCHAR t
ENCODING 116
SWIDTH 364 0
DWIDTH 9 0
BBX 9 19 0 0
BITMAP
FF80
FF80
FF80
1C00
1C00
1C00
1C00
1C00
1C00
1C00
1C00
1C00
1C00
1C00
1C00
1C00
1C00
1C00
1C00
ENDCHAR
STARTCHAR u
ENCODING 117
SWIDTH 402 0
DWIDTH 10 0
BBX 8 19 1 0
BITMAP
E3
E3
E3
E3
E3
E3
E3
E3
E3
E3
E3
E3
E3
E3
E3
E3
FF
7F
3E
ENDCHAR
STARTCHAR v
ENCODING 118
SWIDTH 382 0
DWIDTH 10 0
BBX 10 19 0 0
BITMAP
E1C0
6180
7180
7180
7380
7380
7380
7380
3300
3300
3B00
3B00
3F00
3F00
3F00
1E00
1E00
1E00
1E00
ENDCHAR
STARTCHAR w
ENCODING 119
SWIDTH 557 0
DWIDTH 14 0
BBX 14 19 0 0
BITMAP
E38C
639C
639C
679C
779C
779C
77D8
76D8
76D8
76D8
76D8
36D8
36D8
36F8
3EF8
3CF8
3CF8
3C70
3C70
ENDCHAR
STARTCHAR x
ENCODING 120
SWIDTH 406 0
DWIDTH 11 0
BBX 10 19 0 0
BITMAP
F1C0
71C0
7180
3B80
3B80
3B00
1F00
1F00
1E00
0E00
1E00
1F00
3F00
3F00
3380
7380
7380
61C0
E1C0
ENDCHAR
STARTCHAR y
ENCODING 121
SWIDTH 394 0
DWIDTH 10 0
BBX 10 19 0 0
BITMAP
E1C0
71C0
7180
7380
3B80
3B00
3F00
1F00
1E00
1E00
0E00
0E00
0E00
0E00
0E00
0E00
0E00
0E00
0E00
ENDCHAR
STARTCHAR z
ENCODING 122
SWIDTH 362 0
DWIDTH 9 0
BBX 9 19 0 0
BITMAP
7F80
7F80
7F80
0780
0700
0700
0E00
0E00
0E00
1C00
1C00
3800
3800
3800
7000
7000
FF80
FF80
FF80
ENDCHAR
STARTCHAR braceleft
ENCODING 123
SWIDTH 276 0
DWIDTH 7 0
BBX 6 22 1 -1
BITMAP
1C
3C
7C
70
70
70
70
70
70
70
E0
E0
F0
70
70
70
70
70
70
7C
7C
3C
ENDCHAR
STARTCHAR bar
ENCODING 124
SWIDTH 500 0
DWIDTH 13 0
BBX 3 27 5 -5
BITMAP
E0
E0
E0
E0
E0
E0
E0
E0
E0
E0
E0
E0
E0
E0
E0
E0
E0
E0
E0
E0
E0
E0
E0
E0
E0
E0
E0
ENDCHAR
STARTCHAR braceright
ENCODING 125
SWIDTH 276 0
DWIDTH 7 0
BBX 6 22 1 -1
BITMAP
C0
F0
F0
70
70
70
70
70
70
70
3C
1C
3C
70
70
70
70
70
70
F0
F0
E0
ENDCHAR
STARTCHAR asciitilde
ENCODING 126
SWIDTH 400 0
DWIDTH 10 0
BBX 10 4 0 7
BITMAP
3880
7FC0
FF80
4700
ENDCHAR
STARTCHAR uni00A0
ENCODING 160
SWIDTH 160 0
DWIDTH 4 0
BBX 1 1 0 0
BITMAP
00
ENDCHAR
STARTCHAR exclamdown
ENCODING 161
SWIDTH 210 0
DWIDTH 5 0
BBX 3 19 1 0
BITMAP
E0
E0
E0
00
00
60
60
E0
E0
E0
E0
E0
E0
E0
E0
E0
E0
E0
E0
ENDCHAR
STARTCHAR cent
ENCODING 162
SWIDTH 400 0
DWIDTH 10 0
BBX 9 19 1 0
BITMAP
1800
1800
7E00
7F00
E700
E380
E380
E000
E000
E000
E000
E380
E380
E700
FF00
7F00
3C00
1800
1800
ENDCHAR
STARTCHAR sterling
ENCODING 163
SWIDTH 400 0
DWIDTH 10 0
BBX 9 19 1 0
BITMAP
3E00
7F00
FF00
E380
E380
E380
E000
7000
7000
FF00
FF00
FF00
3800
3800
3800
7000
FF00
FF00
FF00
ENDCHAR
STARTCHAR currency
ENCODING 164
SWIDTH 400 0
DWIDTH 10 0
BBX 9 9 1 5
BITMAP
4100
FF80
7E00
6600
6300
6600
7E00
FF80
4100
ENDCHAR
STARTCHAR yen
ENCODING 165
SWIDTH 400 0
DWIDTH 10 0
BBX 10 19 0 0
BITMAP
E1C0
71C0
7180
7380
3B80
3B00
3B00
1F00
1E00
1E00
7F80
7F80
0E00
0E00
7F80
7F80
0E00
0E00
0E00
ENDCHAR
STARTCHAR brokenbar
ENCODING 166
SWIDTH 500 0
DWIDTH 13 0
BBX 3 27 5 -5
BITMAP
E0
E0
E0
E0
E0
E0
E0
E0
E0
E0
E0
00
00
00
00
00
E0
E0
E0
E0
E0
E0
E0
E0
E0
E0
E0
ENDCHAR
STARTCHAR section
ENCODING 167
SWIDTH 400 0
DWIDTH 10 0
BBX 9 22 1 -3
BITMAP
3E00
7F00
FF00
E300
E380
E000
F800
7E00
7F00
E780
C380
C380
E300
FF00
7E00
1F00
0700
E380
E380
FF00
7F00
3E00
ENDCHAR
STARTCHAR dieresis
ENCODING 168
SWIDTH 500 0
DWIDTH 13 0
BBX 7 3 3 20
BITMAP
EE
EE
EE
ENDCHAR
STARTCHAR copyright
ENCODING 169
SWIDTH 738 0
DWIDTH 19 0
BBX 18 19 1 0
BITMAP
03F000
0FFC00
3C0E00
71C700
63E300
C36180
C32180
C30080
8300C0
8300C0
8320C0
C32080
C36180
C3E180
61C300
700700
3C0E00
0FFC00
07F000
ENDCHAR
STARTCHAR ordfeminine
ENCODING 170
SWIDTH 280 0
DWIDTH 7 0
BBX 5 13 1 6
BITMAP
30
F8
D8
18
38
F8
D8
D8
F8
E8
00
F8
F8
ENDCHAR
STARTCHAR guillemotleft
ENCODING 171
SWIDTH 336 0
DWIDTH 9 0
BBX 8 6 0 6
BITMAP
33
77
EE
66
77
33
ENDCHAR
STARTCHAR logicalnot
ENCODING 172
SWIDTH 400 0
DWIDTH 10 0
BBX 9 6 1 5
BITMAP
FF80
FF80
FF80
0180
0180
0180
ENDCHAR
STARTCHAR uni00AD
ENCODING 173
SWIDTH 270 0
DWIDTH 7 0
BBX 5 3 1 8
BITMAP
F8
F8
F8
ENDCHAR
STARTCHAR registered
ENCODING 174
SWIDTH 738 0
DWIDTH 19 0
BBX 18 19 1 0
BITMAP
03F000
0FFC00
3C0E00
700700
63E300
C3E180
C33180
C33080
8360C0
83E0C0
83E0C0
C33080
C33180
C33180
633300
700700
3C0E00
0FFC00
07F000
ENDCHAR
STARTCHAR macron
ENCODING 175
SWIDTH 500 0
DWIDTH 13 0
BBX 5 3 4 20
BITMAP
F8
F8
F8
ENDCHAR
STARTCHAR degree
ENCODING 176
SWIDTH 400 0
DWIDTH 10 0
BBX 7 7 2 12
BITMAP
38
FC
CC
C6
CC
FC
78
ENDCHAR
STARTCHAR plusminus
ENCODING 177
SWIDTH 400 0
DWIDTH 10 0
BBX 8 10 1 4
BITMAP
18
18
18
FF
FF
18
18
18
FF
FF
ENDCHAR
STARTCHAR uni00B2
ENCODING 178
SWIDTH 282 0
DWIDTH 7 0
BBX 5 12 1 9
BITMAP
70
F8
C8
C8
18
18
30
60
C0
C0
F8
F8
ENDCHAR
STARTCHAR uni00B3
ENCODING 179
SWIDTH 282 0
DWIDTH 7 0
BBX 5 12 1 9
BITMAP
70
F8
D8
D8
18
30
38
18
D8
D8
F8
70
ENDCHAR
STARTCHAR acute
ENCODING 180
SWIDTH 500 0
DWIDTH 13 0
BBX 5 3 5 20
BITMAP
38
70
E0
ENDCHAR
STARTCHAR uni00B5
ENCODING 181
SWIDTH 602 0
DWIDTH 16 0
BBX 13 18 2 -6
BITMAP
C0C0
C0C0
C0C0
C0C0
C0C0
C0C0
C0C0
C180
C180
C348
A778
9E70
8000
8000
C000
C000
E000
E000
ENDCHAR
STARTCHAR paragraph
ENCODING 182
SWIDTH 449 0
DWIDTH 12 0
BBX 9 22 1 -3
BITMAP
3F80
7F80
FF80
FD80
FD80
FD80
FD80
FD80
FD80
7D80
3D80
0D80
0D80
0D80
0D80
0D80
0D80
0D80
0D80
0D80
0D80
0D80
ENDCHAR
STARTCHAR periodcentered
ENCODING 183
SWIDTH 188 0
DWIDTH 5 0
BBX 3 3 1 8
BITMAP
E0
E0
E0
ENDCHAR
STARTCHAR cedilla
ENCODING 184
SWIDTH 500 0
DWIDTH 13 0
BBX 5 4 4 -4
BITMAP
20
38
D8
F8
ENDCHAR
STARTCHAR uni00B9
ENCODING 185
SWIDTH 282 0
DWIDTH 7 0
BBX 3 12 2 9
BITMAP
20
60
E0
E0
60
60
60
60
60
60
60
60
ENDCHAR
STARTCHAR ordmasculine
ENCODING 186
SWIDTH 282 0
DWIDTH 7 0
BBX 5 13 1 6
BITMAP
30
F8
D8
C8
C8
C8
C8
C8
F8
70
00
F8
F8
ENDCHAR
STARTCHAR guillemotright
ENCODING 187
SWIDTH 335 0
DWIDTH 9 0
BBX 8 6 0 6
BITMAP
EE
76
3B
37
76
EE
ENDCHAR
STARTCHAR onequarter
ENCODING 188
SWIDTH 653 0
DWIDTH 17 0
BBX 14 19 2 0
BITMAP
2060
6040
E0C0
60C0
6180
6180
6180
631C
631C
621C
663C
662C
0C6C
0C6C
0C4C
18FC
18FC
100C
300C
ENDCHAR
STARTCHAR onehalf
ENCODING 189
SWIDTH 653 0
DWIDTH 17 0
BBX 14 19 2 0
BITMAP
2060
6040
E0C0
60C0
6180
6180
6180
6338
637C
624C
664C
660C
0C18
0C30
0C30
1860
1860
107C
307C
ENDCHAR
STARTCHAR threequarters
ENCODING 190
SWIDTH 653 0
DWIDTH 17 0
BBX 15 19 1 0
BITMAP
7030
F820
D860
D860
18C0
38C0
38C0
198E
198E
D90E
DB1E
FB16
7636
0636
0626
0C7E
0C7E
0806
1806
ENDCHAR
STARTCHAR questiondown
ENCODING 191
SWIDTH 363 0
DWIDTH 9 0
BBX 8 19 1 0
BITMAP
1C
1C
1C
00
00
18
18
38
38
70
70
E0
E7
C7
C7
E7
FF
FE
7C
ENDCHAR
STARTCHAR Agrave
ENCODING 192
SWIDTH 401 0
DWIDTH 10 0
BBX 10 23 0 0
BITMAP
3800
1C00
0E00
0000
1E00
1E00
1F00
1F00
1F00
3F00
3B00
3B00
3300
3380
3380
7380
7380
7F80
7F80
7FC0
61C0
61C0
E1C0
ENDCHAR
STARTCHAR Aacute
ENCODING 193
SWIDTH 401 0
DWIDTH 10 0
BBX 10 23 0 0
BITMAP
0780
0600
0C00
0000
1E00
1E00
1F00
1F00
1F00
3F00
3B00
3B00
3300
3380
3380
7380
7380
7F80
7F80
7FC0
61C0
61C0
E1C0
ENDCHAR
STARTCHAR Acircumflex
ENCODING 194
SWIDTH 401 0
DWIDTH 10 0
BBX 10 23 0 0
BITMAP
1E00
1F00
3380
0000
1E00
1E00
1F00
1F00
1F00
3F00
3B00
3B00
3300
3380
3380
7380
7380
7F80
7F80
7FC0
61C0
61C0
E1C0
ENDCHAR
STARTCHAR Atilde
ENCODING 195
SWIDTH 401 0
DWIDTH 10 0
BBX 10 23 0 0
BITMAP
1F80
3F00
3F00
0000
1E00
1E00
1F00
1F00
1F00
3F00
3B00
3B00
3300
3380
3380
7380
7380
7F80
7F80
7FC0
61C0
61C0
E1C0
ENDCHAR
STARTCHAR Adieresis
ENCODING 196
SWIDTH 401 0
DWIDTH 10 0
BBX 10 23 0 0
BITMAP
3380
3380
3380
0000
1E00
1E00
1F00
1F00
1F00
3F00
3B00
3B00
3300
3380
3380
7380
7380
7F80
7F80
7FC0
61C0
61C0
E1C0
ENDCHAR
STARTCHAR Aring
ENCODING 197
SWIDTH 401 0
DWIDTH 10 0
BBX 10 24 0 0
BITMAP
0E00
1A00
1300
1E00
0000
1E00
1E00
1F00
1F00
1F00
3F00
3B00
3B00
3300
3380
3380
7380
7380
7F80
7F80
7FC0
61C0
61C0
E1C0
ENDCHAR
STARTCHAR AE
ENCODING 198
SWIDTH 580 0
DWIDTH 15 0
BBX 15 19 0 0
BITMAP
07FE
07FE
0FFE
0FC0
0DC0
0DC0
1DC0
1DC0
1DFC
19FC
39FC
39C0
39C0
3FC0
7FC0
7FC0
71FE
61FE
E1FE
ENDCHAR
STARTCHAR Ccedilla
ENCODING 199
SWIDTH 383 0
DWIDTH 10 0
BBX 8 23 1 -4
BITMAP
3C
7E
FF
E7
E3
E3
E3
E0
E0
E0
E0
E0
E3
E3
E3
E3
E7
FF
7E
18
1C
66
3C
ENDCHAR
STARTCHAR Egrave
ENCODING 200
SWIDTH 363 0
DWIDTH 9 0
BBX 8 23 1 0
BITMAP
70
38
1C
00
FF
FF
FF
E0
E0
E0
E0
E0
FE
FE
FE
E0
E0
E0
E0
E0
FF
FF
FF
ENDCHAR
STARTCHAR Eacute
ENCODING 201
SWIDTH 363 0
DWIDTH 9 0
BBX 8 23 1 0
BITMAP
0E
1C
38
00
FF
FF
FF
E0
E0
E0
E0
E0
FE
FE
FE
E0
E0
E0
E0
E0
FF
FF
FF
ENDCHAR
STARTCHAR Ecircumflex
ENCODING 202
SWIDTH 363 0
DWIDTH 9 0
BBX 8 23 1 0
BITMAP
3C
3C
E6
00
FF
FF
FF
E0
E0
E0
E0
E0
FE
FE
FE
E0
E0
E0
E0
E0
FF
FF
FF
ENDCHAR
STARTCHAR Edieresis
ENCODING 203
SWIDTH 363 0
DWIDTH 9 0
BBX 8 23 1 0
BITMAP
66
66
66
00
FF
FF
FF
E0
E0
E0
E0
E0
FE
FE
FE
E0
E0
E0
E0
E0
FF
FF
FF
ENDCHAR
STARTCHAR Igrave
ENCODING 204
SWIDTH 192 0
DWIDTH 5 0
BBX 5 23 -1 0
BITMAP
E0
70
38
00
38
38
38
38
38
38
38
38
38
38
38
38
38
38
38
38
38
38
38
ENDCHAR
STARTCHAR Iacute
ENCODING 205
SWIDTH 192 0
DWIDTH 5 0
BBX 5 23 1 0
BITMAP
38
70
E0
00
E0
E0
E0
E0
E0
E0
E0
E0
E0
E0
E0
E0
E0
E0
E0
E0
E0
E0
E0
ENDCHAR
STARTCHAR Icircumflex
ENCODING 206
SWIDTH 192 0
DWIDTH 5 0
BBX 7 23 -1 0
BITMAP
38
7C
EE
00
38
38
38
38
38
38
38
38
38
38
38
38
38
38
38
38
38
38
38
ENDCHAR
STARTCHAR Idieresis
ENCODING 207
SWIDTH 192 0
DWIDTH 5 0
BBX 7 23 -1 0
BITMAP
EE
EE
EE
00
38
38
38
38
38
38
38
38
38
38
38
38
38
38
38
38
38
38
38
ENDCHAR
STARTCHAR Eth
ENCODING 208
SWIDTH 423 0
DWIDTH 11 0
BBX 10 19 0 0
BITMAP
3F00
3F80
3FC0
31C0
31C0
31C0
31C0
31C0
FDC0
FDC0
FDC0
31C0
31C0
31C0
31C0
31C0
3FC0
3F80
3F00
ENDCHAR
STARTCHAR Ntilde
ENCODING 209
SWIDTH 427 0
DWIDTH 11 0
BBX 9 23 1 0
BITMAP
3F00
7F00
7E00
0000
F380
F380
F380
FB80
FB80
FB80
FB80
FB80
FF80
EF80
EF80
EF80
EF80
E780
E780
E780
E780
E380
E380
ENDCHAR
STARTCHAR Ograve
ENCODING 210
SWIDTH 400 0
DWIDTH 10 0
BBX 9 23 1 0
BITMAP
7000
3800
1C00
0000
3C00
7F00
FF00
E300
E380
E380
E380
E380
E380
E380
E380
E380
E380
E380
E380
E300
FF00
7F00
3C00
ENDCHAR
STARTCHAR Oacute
ENCODING 211
SWIDTH 400 0
DWIDTH 10 0
BBX 9 23 1 0
BITMAP
0F00
0C00
1800
0000
3C00
7F00
FF00
E300
E380
E380
E380
E380
E380
E380
E380
E380
E380
E380
E380
E300
FF00
7F00
3C00
ENDCHAR
STARTCHAR Ocircumflex
ENCODING 212
SWIDTH 400 0
DWIDTH 10 0
BBX 9 23 1 0
BITMAP
3C00
3E00
6700
0000
3C00
7F00
FF00
E300
E380
E380
E380
E380
E380
E380
E380
E380
E380
E380
E380
E300
FF00
7F00
3C00
ENDCHAR
STARTCHAR Otilde
ENCODING 213
SWIDTH 400 0
DWIDTH 10 0
BBX 9 23 1 0
BITMAP
3F00
7E00
7E00
0000
3C00
7F00
FF00
E300
E380
E380
E380
E380
E380
E380
E380
E380
E380
E380
E380
E300
FF00
7F00
3C00
ENDCHAR
STARTCHAR Odieresis
ENCODING 214
SWIDTH 400 0
DWIDTH 10 0
BBX 9 23 1 0
BITMAP
6600
6600
6600
0000
3C00
7F00
FF00
E300
E380
E380
E380
E380
E380
E380
E380
E380
E380
E380
E380
E300
FF00
7F00
3C00
ENDCHAR
STARTCHAR multiply
ENCODING 215
SWIDTH 400 0
DWIDTH 10 0
BBX 8 8 1 5
BITMAP
43
E7
7E
3C
3C
7E
E7
43
ENDCHAR
STARTCHAR Oslash
ENCODING 216
SWIDTH 400 0
DWIDTH 10 0
BBX 9 19 1 0
BITMAP
3D80
7F00
FF00
E300
E780
E780
EF80
EF80
EF80
FB80
FB80
F380
F380
F380
E380
E300
FF00
FF00
FC00
ENDCHAR
STARTCHAR Ugrave
ENCODING 217
SWIDTH 402 0
DWIDTH 10 0
BBX 8 23 1 0
BITMAP
70
38
1C
00
E3
E3
E3
E3
E3
E3
E3
E3
E3
E3
E3
E3
E3
E3
E3
E3
FF
7F
3E
ENDCHAR
STARTCHAR Uacute
ENCODING 218
SWIDTH 402 0
DWIDTH 10 0
BBX 8 23 1 0
BITMAP
0F
0C
18
00
E3
E3
E3
E3
E3
E3
E3
E3
E3
E3
E3
E3
E3
E3
E3
E3
FF
7F
3E
ENDCHAR
STARTCHAR Ucircumflex
ENCODING 219
SWIDTH 402 0
DWIDTH 10 0
BBX 8 23 1 0
BITMAP
3C
3E
67
00
E3
E3
E3
E3
E3
E3
E3
E3
E3
E3
E3
E3
E3
E3
E3
E3
FF
7F
3E
ENDCHAR
STARTCHAR Udieresis
ENCODING 220
SWIDTH 402 0
DWIDTH 10 0
BBX 8 23 1 0
BITMAP
67
67
67
00
E3
E3
E3
E3
E3
E3
E3
E3
E3
E3
E3
E3
E3
E3
E3
E3
FF
7F
3E
ENDCHAR
STARTCHAR Yacute
ENCODING 221
SWIDTH 394 0
DWIDTH 10 0
BBX 10 23 0 0
BITMAP
0780
0600
0C00
0000
E1C0
71C0
7180
7380
3B80
3B00
3F00
1F00
1E00
1E00
0E00
0E00
0E00
0E00
0E00
0E00
0E00
0E00
0E00
ENDCHAR
STARTCHAR Thorn
ENCODING 222
SWIDTH 386 0
DWIDTH 10 0
BBX 9 19 1 0
BITMAP
E000
E000
E000
FE00
FF00
FF00
E300
E380
E380
E380
E300
FF00
FF00
FE00
E000
E000
E000
E000
E000
ENDCHAR
STARTCHAR germandbls
ENCODING 223
SWIDTH 407 0
DWIDTH 11 0
BBX 9 19 1 0
BITMAP
FF80
FF80
FF80
E300
E700
E700
EE00
EE00
EF00
EF80
E380
E380
E380
E380
E380
E380
EF80
EF00
EE00
ENDCHAR
STARTCHAR agrave
ENCODING 224
SWIDTH 401 0
DWIDTH 10 0
BBX 10 23 0 0
BITMAP
3800
1C00
0E00
0000
1E00
1E00
1F00
1F00
1F00
3F00
3B00
3B00
3300
3380
3380
7380
7380
7F80
7F80
7FC0
61C0
61C0
E1C0
ENDCHAR
STARTCHAR aacute
ENCODING 225
SWIDTH 401 0
DWIDTH 10 0
BBX 10 23 0 0
BITMAP
0780
0600
0C00
0000
1E00
1E00
1F00
1F00
1F00
3F00
3B00
3B00
3300
3380
3380
7380
7380
7F80
7F80
7FC0
61C0
61C0
E1C0
ENDCHAR
STARTCHAR acircumflex
ENCODING 226
SWIDTH 401 0
DWIDTH 10 0
BBX 10 23 0 0
BITMAP
1E00
1F00
3380
0000
1E00
1E00
1F00
1F00
1F00
3F00
3B00
3B00
3300
3380
3380
7380
7380
7F80
7F80
7FC0
61C0
61C0
E1C0
ENDCHAR
STARTCHAR atilde
ENCODING 227
SWIDTH 401 0
DWIDTH 10 0
BBX 10 23 0 0
BITMAP
1F80
3F00
3F00
0000
1E00
1E00
1F00
1F00
1F00
3F00
3B00
3B00
3300
3380
3380
7380
7380
7F80
7F80
7FC0
61C0
61C0
E1C0
ENDCHAR
STARTCHAR adieresis
ENCODING 228
SWIDTH 401 0
DWIDTH 10 0
BBX 10 23 0 0
BITMAP
3380
3380
3380
0000
1E00
1E00
1F00
1F00
1F00
3F00
3B00
3B00
3300
3380
3380
7380
7380
7F80
7F80
7FC0
61C0
61C0
E1C0
ENDCHAR
STARTCHAR aring
ENCODING 229
SWIDTH 401 0
DWIDTH 10 0
BBX 10 24 0 0
BITMAP
0E00
1A00
1300
1E00
0000
1E00
1E00
1F00
1F00
1F00
3F00
3B00
3B00
3300
3380
3380
7380
7380
7F80
7F80
7FC0
61C0
61C0
E1C0
ENDCHAR
STARTCHAR ae
ENCODING 230
SWIDTH 580 0
DWIDTH 15 0
BBX 15 19 0 0
BITMAP
07FE
07FE
0FFE
0FC0
0DC0
0DC0
1DC0
1DC0
1DFC
19FC
39FC
39C0
39C0
3FC0
7FC0
7FC0
71FE
61FE
E1FE
ENDCHAR
STARTCHAR ccedilla
ENCODING 231
SWIDTH 383 0
DWIDTH 10 0
BBX 8 23 1 -4
BITMAP
3C
7E
FF
E7
E3
E3
E3
E0
E0
E0
E0
E0
E3
E3
E3
E3
E7
FF
7E
18
1C
66
3C
ENDCHAR
STARTCHAR egrave
ENCODING 232
SWIDTH 363 0
DWIDTH 9 0
BBX 8 23 1 0
BITMAP
70
38
1C
00
FF
FF
FF
E0
E0
E0
E0
E0
FE
FE
FE
E0
E0
E0
E0
E0
FF
FF
FF
ENDCHAR
STARTCHAR eacute
ENCODING 233
SWIDTH 363 0
DWIDTH 9 0
BBX 8 23 1 0
BITMAP
0E
1C
38
00
FF
FF
FF
E0
E0
E0
E0
E0
FE
FE
FE
E0
E0
E0
E0
E0
FF
FF
FF
ENDCHAR
STARTCHAR ecircumflex
ENCODING 234
SWIDTH 363 0
DWIDTH 9 0
BBX 8 23 1 0
BITMAP
3C
3C
E6
00
FF
FF
FF
E0
E0
E0
E0
E0
FE
FE
FE
E0
E0
E0
E0
E0
FF
FF
FF
ENDCHAR
STARTCHAR edieresis
ENCODING 235
SWIDTH 363 0
DWIDTH 9 0
BBX 8 23 1 0
BITMAP
66
66
66
00
FF
FF
FF
E0
E0
E0
E0
E0
FE
FE
FE
E0
E0
E0
E0
E0
FF
FF
FF
ENDCHAR
STARTCHAR igrave
ENCODING 236
SWIDTH 192 0
DWIDTH 5 0
BBX 5 23 -1 0
BITMAP
E0
70
38
00
38
38
38
38
38
38
38
38
38
38
38
38
38
38
38
38
38
38
38
ENDCHAR
STARTCHAR iacute
ENCODING 237
SWIDTH 192 0
DWIDTH 5 0
BBX 5 23 1 0
BITMAP
38
70
E0
00
E0
E0
E0
E0
E0
E0
E0
E0
E0
E0
E0
E0
E0
E0
E0
E0
E0
E0
E0
ENDCHAR
STARTCHAR icircumflex
ENCODING 238
SWIDTH 192 0
DWIDTH 5 0
BBX 7 23 -1 0
BITMAP
38
7C
EE
00
38
38
38
38
38
38
38
38
38
38
38
38
38
38
38
38
38
38
38
ENDCHAR
STARTCHAR idieresis
ENCODING 239
SWIDTH 192 0
DWIDTH 5 0
BBX 7 23 -1 0
BITMAP
EE
EE
EE
00
38
38
38
38
38
38
38
38
38
38
38
38
38
38
38
38
38
38
38
ENDCHAR
STARTCHAR eth
ENCODING 240
SWIDTH 423 0
DWIDTH 11 0
BBX 10 19 0 0
BITMAP
3F00
3F80
3FC0
31C0
31C0
31C0
31C0
31C0
FDC0
FDC0
FDC0
31C0
31C0
31C0
31C0
31C0
3FC0
3F80
3F00
ENDCHAR
STARTCHAR ntilde
ENCODING 241
SWIDTH 427 0
DWIDTH 11 0
BBX 9 23 1 0
BITMAP
3F00
7F00
7E00
0000
F380
F380
F380
FB80
FB80
FB80
FB80
FB80
FF80
EF80
EF80
EF80
EF80
E780
E780
E780
E780
E380
E380
ENDCHAR
STARTCHAR ograve
ENCODING 242
SWIDTH 400 0
DWIDTH 10 0
BBX 9 23 1 0
BITMAP
7000
3800
1C00
0000
3C00
7F00
FF00
E300
E380
E380
E380
E380
E380
E380
E380
E380
E380
E380
E380
E300
FF00
7F00
3C00
ENDCHAR
STARTCHAR oacute
ENCODING 243
SWIDTH 400 0
DWIDTH 10 0
BBX 9 23 1 0
BITMAP
0F00
0C00
1800
0000
3C00
7F00
FF00
E300
E380
E380
E380
E380
E380
E380
E380
E380
E380
E380
E380
E300
FF00
7F00
3C00
ENDCHAR
STARTCHAR ocircumflex
ENCODING 244
SWIDTH 400 0
DWIDTH 10 0
BBX 9 23 1 0
BITMAP
3C00
3E00
6700
0000
3C00
7F00
FF00
E300
E380
E380
E380
E380
E380
E380
E380
E380
E380
E380
E380
E300
FF00
7F00
3C00
ENDCHAR
STARTCHAR otilde
ENCODING 245
SWIDTH 400 0
DWIDTH 10 0
BBX 9 23 1 0
BITMAP
3F00
7E00
7E00
0000
3C00
7F00
FF00
E300
E380
E380
E380
E380
E380
E380
E380
E380
E380
E380
E380
E300
FF00
7F00
3C00
ENDCHAR
STARTCHAR odieresis
ENCODING 246
SWIDTH 400 0
DWIDTH 10 0
BBX 9 23 1 0
BITMAP
6600
6600
6600
0000
3C00
7F00
FF00
E300
E380
E380
E380
E380
E380
E380
E380
E380
E380
E380
E380
E300
FF00
7F00
3C00
ENDCHAR
STARTCHAR divide
ENCODING 247
SWIDTH 400 0
DWIDTH 10 0
BBX 9 11 1 4
BITMAP
1C00
1C00
1C00
0000
FF80
FF80
FF80
0000
1C00
1C00
1C00
ENDCHAR
STARTCHAR oslash
ENCODING 248
SWIDTH 400 0
DWIDTH 10 0
BBX 9 19 1 0
BITMAP
3D80
7F00
FF00
E300
E780
E780
EF80
EF80
EF80
FB80
FB80
F380
F380
F380
E380
E300
FF00
FF00
FC00
ENDCHAR
STARTCHAR ugrave
ENCODING 249
SWIDTH 402 0
DWIDTH 10 0
BBX 8 23 1 0
BITMAP
70
38
1C
00
E3
E3
E3
E3
E3
E3
E3
E3
E3
E3
E3
E3
E3
E3
E3
E3
FF
7F
3E
ENDCHAR
STARTCHAR uacute
ENCODING 250
SWIDTH 402 0
DWIDTH 10 0
BBX 8 23 1 0
BITMAP
0F
0C
18
00
E3
E3
E3
E3
E3
E3
E3
E3
E3
E3
E3
E3
E3
E3
E3
E3
FF
7F
3E
ENDCHAR
STARTCHAR ucircumflex
ENCODING 251
SWIDTH 402 0
DWIDTH 10 0
BBX 8 23 1 0
BITMAP
3C
3E
67
00
E3
E3
E3
E3
E3
E3
E3
E3
E3
E3
E3
E3
E3
E3
E3
E3
FF
7F
3E
ENDCHAR
STARTCHAR udieresis
ENCODING 252
SWIDTH 402 0
DWIDTH 10 0
BBX 8 23 1 0
BITMAP
67
67
67
00
E3
E3
E3
E3
E3
E3
E3
E3
E3
E3
E3
E3
E3
E3
E3
E3
FF
7F
3E
ENDCHAR
STARTCHAR yacute
ENCODING 253
SWIDTH 394 0
DWIDTH 10 0
BBX 10 23 0 0
BITMAP
0780
0600
0C00
0000
E1C0
71C0
7180
7380
3B80
3B00
3F00
1F00
1E00
1E00
0E00
0E00
0E00
0E00
0E00
0E00
0E00
0E00
0E00
ENDCHAR
STARTCHAR thorn
ENCODING 254
SWIDTH 386 0
DWIDTH 10 0
BBX 9 19 1 0
BITMAP
E000
E000
E000
FE00
FF00
FF00
E300
E380
E380
E380
E300
FF00
FF00
FE00
E000
E000
E000
E000
E000
ENDCHAR
STARTCHAR ydieresis
ENCODING 255
SWIDTH 394 0
DWIDTH 10 0
BBX 10 23 0 0
BITMAP
3300
3300
3300
0000
E1C0
71C0
7180
7380
3B80
3B00
3F00
1F00
1E00
1E00
0E00
0E00
0E00
0E00
0E00
0E00
0E00
0E00
0E00
ENDCHAR
STARTCHAR Amacron
ENCODING 256
SWIDTH 401 0
DWIDTH 10 0
BBX 10 23 0 0
BITMAP
3F00
3F00
3F00
0000
1E00
1E00
1F00
1F00
1F00
3F00
3B00
3B00
3300
3380
3380
7380
7380
7F80
7F80
7FC0
61C0
61C0
E1C0
ENDCHAR
STARTCHAR amacron
ENCODING 257
SWIDTH 401 0
DWIDTH 10 0
BBX 10 23 0 0
BITMAP
3F00
3F00
3F00
0000
1E00
1E00
1F00
1F00
1F00
3F00
3B00
3B00
3300
3380
3380
7380
7380
7F80
7F80
7FC0
61C0
61C0
E1C0
ENDCHAR
STARTCHAR Abreve
ENCODING 258
SWIDTH 401 0
DWIDTH 10 0
BBX 10 23 0 0
BITMAP
3300
3F00
1E00
0000
1E00
1E00
1F00
1F00
1F00
3F00
3B00
3B00
3300
3380
3380
7380
7380
7F80
7F80
7FC0
61C0
61C0
E1C0
ENDCHAR
STARTCHAR abreve
ENCODING 259
SWIDTH 401 0
DWIDTH 10 0
BBX 10 23 0 0
BITMAP
3300
3F00
1E00
0000
1E00
1E00
1F00
1F00
1F00
3F00
3B00
3B00
3300
3380
3380
7380
7380
7F80
7F80
7FC0
61C0
61C0
E1C0
ENDCHAR
STARTCHAR Aogonek
ENCODING 260
SWIDTH 401 0
DWIDTH 10 0
BBX 10 23 0 -4
BITMAP
1E00
1E00
1F00
1F00
1F00
3F00
3B00
3B00
3300
3380
3380
7380
7380
7F80
7F80
7FC0
61C0
61C0
E1C0
0180
0300
03C0
01C0
ENDCHAR
STARTCHAR aogonek
ENCODING 261
SWIDTH 401 0
DWIDTH 10 0
BBX 10 23 0 -4
BITMAP
1E00
1E00
1F00
1F00
1F00
3F00
3B00
3B00
3300
3380
3380
7380
7380
7F80
7F80
7FC0
61C0
61C0
E1C0
0180
0300
03C0
01C0
ENDCHAR
STARTCHAR Cacute
ENCODING 262
SWIDTH 383 0
DWIDTH 10 0
BBX 8 23 1 0
BITMAP
0E
1C
38
00
3C
7E
FF
E7
E3
E3
E3
E0
E0
E0
E0
E0
E3
E3
E3
E7
FF
7E
3C
ENDCHAR
STARTCHAR cacute
ENCODING 263
SWIDTH 383 0
DWIDTH 10 0
BBX 8 23 1 0
BITMAP
0E
1C
38
00
3C
7E
FF
E7
E3
E3
E3
E0
E0
E0
E0
E0
E3
E3
E3
E7
FF
7E
3C
ENDCHAR
STARTCHAR Ccircumflex
ENCODING 264
SWIDTH 383 0
DWIDTH 10 0
BBX 8 23 1 0
BITMAP
3C
3C
67
00
3C
7E
FF
E7
E3
E3
E3
E0
E0
E0
E0
E0
E3
E3
E3
E7
FF
7E
3C
ENDCHAR
STARTCHAR ccircumflex
ENCODING 265
SWIDTH 383 0
DWIDTH 10 0
BBX 8 23 1 0
BITMAP
3C
3C
67
00
3C
7E
FF
E7
E3
E3
E3
E0
E0
E0
E0
E0
E3
E3
E3
E7
FF
7E
3C
ENDCHAR
STARTCHAR Cdotaccent
ENCODING 266
SWIDTH 383 0
DWIDTH 10 0
BBX 8 23 1 0
BITMAP
18
18
18
00
3C
7E
FF
E7
E3
E3
E3
E0
E0
E0
E0
E0
E3
E3
E3
E7
FF
7E
3C
ENDCHAR
STARTCHAR cdotaccent
ENCODING 267
SWIDTH 383 0
DWIDTH 10 0
BBX 8 23 1 0
BITMAP
18
18
18
00
3C
7E
FF
E7
E3
E3
E3
E0
E0
E0
E0
E0
E3
E3
E3
E7
FF
7E
3C
ENDCHAR
STARTCHAR Ccaron
ENCODING 268
SWIDTH 383 0
DWIDTH 10 0
BBX 8 23 1 0
BITMAP
67
3C
3C
00
3C
7E
FF
E7
E3
E3
E3
E0
E0
E0
E0
E0
E3
E3
E3
E7
FF
7E
3C
ENDCHAR
STARTCHAR ccaron
ENCODING 269
SWIDTH 383 0
DWIDTH 10 0
BBX 8 23 1 0
BITMAP
67
3C
3C
00
3C
7E
FF
E7
E3
E3
E3
E0
E0
E0
E0
E0
E3
E3
E3
E7
FF
7E
3C
ENDCHAR
STARTCHAR Dcaron
ENCODING 270
SWIDTH 406 0
DWIDTH 11 0
BBX 9 23 1 0
BITMAP
6700
3C00
3C00
0000
FE00
FF00
FF00
E380
E380
E380
E380
E380
E380
E380
E380
E380
E380
E380
E380
E380
FF00
FF00
FE00
ENDCHAR
STARTCHAR dcaron
ENCODING 271
SWIDTH 406 0
DWIDTH 11 0
BBX 9 23 1 0
BITMAP
6700
3C00
3C00
0000
FE00
FF00
FF00
E380
E380
E380
E380
E380
E380
E380
E380
E380
E380
E380
E380
E380
FF00
FF00
FE00
ENDCHAR
STARTCHAR Dcroat
ENCODING 272
SWIDTH 423 0
DWIDTH 11 0
BBX 10 19 0 0
BITMAP
3F00
3F80
3FC0
31C0
31C0
31C0
31C0
31C0
FDC0
FDC0
FDC0
31C0
31C0
31C0
31C0
31C0
3FC0
3F80
3F00
ENDCHAR
STARTCHAR dcroat
ENCODING 273
SWIDTH 423 0
DWIDTH 11 0
BBX 10 19 0 0
BITMAP
3F00
3F80
3FC0
31C0
31C0
31C0
31C0
31C0
FDC0
FDC0
FDC0
31C0
31C0
31C0
31C0
31C0
3FC0
3F80
3F00
ENDCHAR
STARTCHAR Emacron
ENCODING 274
SWIDTH 363 0
DWIDTH 9 0
BBX 8 23 1 0
BITMAP
7E
7E
7E
00
FF
FF
FF
E0
E0
E0
E0
E0
FE
FE
FE
E0
E0
E0
E0
E0
FF
FF
FF
ENDCHAR
STARTCHAR emacron
ENCODING 275
SWIDTH 363 0
DWIDTH 9 0
BBX 8 23 1 0
BITMAP
7E
7E
7E
00
FF
FF
FF
E0
E0
E0
E0
E0
FE
FE
FE
E0
E0
E0
E0
E0
FF
FF
FF
ENDCHAR
STARTCHAR Ebreve
ENCODING 276
SWIDTH 363 0
DWIDTH 9 0
BBX 8 23 1 0
BITMAP
66
7E
3C
00
FF
FF
FF
E0
E0
E0
E0
E0
FE
FE
FE
E0
E0
E0
E0
E0
FF
FF
FF
ENDCHAR
STARTCHAR ebreve
ENCODING 277
SWIDTH 363 0
DWIDTH 9 0
BBX 8 23 1 0
BITMAP
66
7E
3C
00
FF
FF
FF
E0
E0
E0
E0
E0
FE
FE
FE
E0
E0
E0
E0
E0
FF
FF
FF
ENDCHAR
STARTCHAR Edotaccent
ENCODING 278
SWIDTH 363 0
DWIDTH 9 0
BBX 8 23 1 0
BITMAP
18
18
18
00
FF
FF
FF
E0
E0
E0
E0
E0
FE
FE
FE
E0
E0
E0
E0
E0
FF
FF
FF
ENDCHAR
STARTCHAR edotaccent
ENCODING 279
SWIDTH 363 0
DWIDTH 9 0
BBX 8 23 1 0
BITMAP
18
18
18
00
FF
FF
FF
E0
E0
E0
E0
E0
FE
FE
FE
E0
E0
E0
E0
E0
FF
FF
FF
ENDCHAR
STARTCHAR Eogonek
ENCODING 280
SWIDTH 363 0
DWIDTH 9 0
BBX 8 23 1 -4
BITMAP
FF
FF
FF
E0
E0
E0
E0
E0
FE
FE
FE
E0
E0
E0
E0
E0
FF
FF
FF
04
0C
0F
0F
ENDCHAR
STARTCHAR eogonek
ENCODING 281
SWIDTH 363 0
DWIDTH 9 0
BBX 8 23 1 -4
BITMAP
FF
FF
FF
E0
E0
E0
E0
E0
FE
FE
FE
E0
E0
E0
E0
E0
FF
FF
FF
04
0C
0F
0F
ENDCHAR
STARTCHAR Ecaron
ENCODING 282
SWIDTH 363 0
DWIDTH 9 0
BBX 8 23 1 0
BITMAP
E6
3C
3C
00
FF
FF
FF
E0
E0
E0
E0
E0
FE
FE
FE
E0
E0
E0
E0
E0
FF
FF
FF
ENDCHAR
STARTCHAR ecaron
ENCODING 283
SWIDTH 363 0
DWIDTH 9 0
BBX 8 23 1 0
BITMAP
E6
3C
3C
00
FF
FF
FF
E0
E0
E0
E0
E0
FE
FE
FE
E0
E0
E0
E0
E0
FF
FF
FF
ENDCHAR
STARTCHAR Gcircumflex
ENCODING 284
SWIDTH 391 0
DWIDTH 10 0
BBX 8 23 1 0
BITMAP
3C
3E
67
00
3C
7F
FF
E3
E3
E3
E0
E0
EF
EF
EF
E3
E3
E3
E3
E3
FF
7F
3C
ENDCHAR
STARTCHAR gcircumflex
ENCODING 285
SWIDTH 391 0
DWIDTH 10 0
BBX 8 23 1 0
BITMAP
3C
3E
67
00
3C
7F
FF
E3
E3
E3
E0
E0
EF
EF
EF
E3
E3
E3
E3
E3
FF
7F
3C
ENDCHAR
STARTCHAR Gbreve
ENCODING 286
SWIDTH 391 0
DWIDTH 10 0
BBX 8 23 1 0
BITMAP
66
7E
3C
00
3C
7F
FF
E3
E3
E3
E0
E0
EF
EF
EF
E3
E3
E3
E3
E3
FF
7F
3C
ENDCHAR
STARTCHAR gbreve
ENCODING 287
SWIDTH 391 0
DWIDTH 10 0
BBX 8 23 1 0
BITMAP
66
7E
3C
00
3C
7F
FF
E3
E3
E3
E0
E0
EF
EF
EF
E3
E3
E3
E3
E3
FF
7F
3C
ENDCHAR
STARTCHAR Gdotaccent
ENCODING 288
SWIDTH 391 0
DWIDTH 10 0
BBX 8 23 1 0
BITMAP
18
18
18
00
3C
7F
FF
E3
E3
E3
E0
E0
EF
EF
EF
E3
E3
E3
E3
E3
FF
7F
3C
ENDCHAR
STARTCHAR gdotaccent
ENCODING 289
SWIDTH 391 0
DWIDTH 10 0
BBX 8 23 1 0
BITMAP
18
18
18
00
3C
7F
FF
E3
E3
E3
E0
E0
EF
EF
EF
E3
E3
E3
E3
E3
FF
7F
3C
ENDCHAR
STARTCHAR uni0122
ENCODING 290
SWIDTH 391 0
DWIDTH 10 0
BBX 8 24 1 -5
BITMAP
3C
7F
FF
E3
E3
E3
E0
E0
EF
EF
EF
E3
E3
E3
E3
E3
FF
7F
3C
00
18
18
18
18
ENDCHAR
STARTCHAR uni0123
ENCODING 291
SWIDTH 391 0
DWIDTH 10 0
BBX 8 24 1 -5
BITMAP
3C
7F
FF
E3
E3
E3
E0
E0
EF
EF
EF
E3
E3
E3
E3
E3
FF
7F
3C
00
18
18
18
18
ENDCHAR
STARTCHAR Hcircumflex
ENCODING 292
SWIDTH 420 0
DWIDTH 11 0
BBX 9 23 1 0
BITMAP
1C00
3E00
7700
0000
E380
E380
E380
E380
E380
E380
E380
E380
FF80
FF80
FF80
E380
E380
E380
E380
E380
E380
E380
E380
ENDCHAR
STARTCHAR hcircumflex
ENCODING 293
SWIDTH 420 0
DWIDTH 11 0
BBX 9 23 1 0
BITMAP
1C00
3E00
7700
0000
E380
E380
E380
E380
E380
E380
E380
E380
FF80
FF80
FF80
E380
E380
E380
E380
E380
E380
E380
E380
ENDCHAR
STARTCHAR Hbar
ENCODING 294
SWIDTH 438 0
DWIDTH 11 0
BBX 11 19 0 0
BITMAP
71C0
71C0
71C0
FFE0
FFE0
FFE0
71C0
71C0
7FC0
7FC0
7FC0
71C0
71C0
71C0
71C0
71C0
71C0
71C0
71C0
ENDCHAR
STARTCHAR hbar
ENCODING 295
SWIDTH 438 0
DWIDTH 11 0
BBX 11 19 0 0
BITMAP
71C0
71C0
71C0
FFE0
FFE0
FFE0
71C0
71C0
7FC0
7FC0
7FC0
71C0
71C0
71C0
71C0
71C0
71C0
71C0
71C0
ENDCHAR
STARTCHAR Itilde
ENCODING 296
SWIDTH 192 0
DWIDTH 5 0
BBX 7 23 -1 0
BITMAP
7E
FE
FC
00
38
38
38
38
38
38
38
38
38
38
38
38
38
38
38
38
38
38
38
ENDCHAR
STARTCHAR itilde
ENCODING 297
SWIDTH 192 0
DWIDTH 5 0
BBX 7 23 -1 0
BITMAP
7E
FE
FC
00
38
38
38
38
38
38
38
38
38
38
38
38
38
38
38
38
38
38
38
ENDCHAR
STARTCHAR Imacron
ENCODING 298
SWIDTH 192 0
DWIDTH 5 0
BBX 5 23 0 0
BITMAP
F8
F8
F8
00
70
70
70
70
70
70
70
70
70
70
70
70
70
70
70
70
70
70
70
ENDCHAR
STARTCHAR imacron
ENCODING 299
SWIDTH 192 0
DWIDTH 5 0
BBX 5 23 0 0
BITMAP
F8
F8
F8
00
70
70
70
70
70
70
70
70
70
70
70
70
70
70
70
70
70
70
70
ENDCHAR
STARTCHAR Ibreve
ENCODING 300
SWIDTH 192 0
DWIDTH 5 0
BBX 7 23 -1 0
BITMAP
C6
7C
38
00
38
38
38
38
38
38
38
38
38
38
38
38
38
38
38
38
38
38
38
ENDCHAR
STARTCHAR ibreve
ENCODING 301
SWIDTH 192 0
DWIDTH 5 0
BBX 7 23 -1 0
BITMAP
C6
7C
38
00
38
38
38
38
38
38
38
38
38
38
38
38
38
38
38
38
38
38
38
ENDCHAR
STARTCHAR Iogonek
ENCODING 302
SWIDTH 192 0
DWIDTH 5 0
BBX 5 23 0 -4
BITMAP
70
70
70
70
70
70
70
70
70
70
70
70
70
70
70
70
70
70
70
60
60
F8
78
ENDCHAR
STARTCHAR iogonek
ENCODING 303
SWIDTH 192 0
DWIDTH 5 0
BBX 5 23 0 -4
BITMAP
70
70
70
70
70
70
70
70
70
70
70
70
70
70
70
70
70
70
70
60
60
F8
78
ENDCHAR
STARTCHAR Idotaccent
ENCODING 304
SWIDTH 192 0
DWIDTH 5 0
BBX 3 23 1 0
BITMAP
E0
E0
E0
00
E0
E0
E0
E0
E0
E0
E0
E0
E0
E0
E0
E0
E0
E0
E0
E0
E0
E0
E0
ENDCHAR
STARTCHAR dotlessi
ENCODING 305
SWIDTH 192 0
DWIDTH 5 0
BBX 3 19 1 0
BITMAP
E0
E0
E0
E0
E0
E0
E0
E0
E0
E0
E0
E0
E0
E0
E0
E0
E0
E0
E0
ENDCHAR
STARTCHAR IJ
ENCODING 306
SWIDTH 457 0
DWIDTH 12 0
BBX 10 19 1 0
BITMAP
E1C0
E1C0
E1C0
E1C0
E1C0
E1C0
E1C0
E1C0
E1C0
E1C0
E1C0
E1C0
E1C0
E1C0
E1C0
E1C0
EFC0
EF80
EF00
ENDCHAR
STARTCHAR ij
ENCODING 307
SWIDTH 457 0
DWIDTH 12 0
BBX 10 19 1 0
BITMAP
E1C0
E1C0
E1C0
E1C0
E1C0
E1C0
E1C0
E1C0
E1C0
E1C0
E1C0
E1C0
E1C0
E1C0
E1C0
E1C0
EFC0
EF80
EF00
ENDCHAR
STARTCHAR Jcircumflex
ENCODING 308
SWIDTH 265 0
DWIDTH 7 0
BBX 8 23 0 0
BITMAP
3C
3E
67
00
1C
1C
1C
1C
1C
1C
1C
1C
1C
1C
1C
1C
1C
1C
1C
1C
FC
F8
F0
ENDCHAR
STARTCHAR jcircumflex
ENCODING 309
SWIDTH 265 0
DWIDTH 7 0
BBX 8 23 0 0
BITMAP
3C
3E
67
00
1C
1C
1C
1C
1C
1C
1C
1C
1C
1C
1C
1C
1C
1C
1C
1C
FC
F8
F0
ENDCHAR
STARTCHAR uni0136
ENCODING 310
SWIDTH 414 0
DWIDTH 11 0
BBX 9 24 1 -5
BITMAP
E380
E380
E700
E700
E600
EE00
EC00
FC00
FC00
FE00
FE00
FE00
E700
E700
E700
E700
E380
E380
E380
0000
1C00
1C00
1C00
0800
ENDCHAR
STARTCHAR uni0137
ENCODING 311
SWIDTH 414 0
DWIDTH 11 0
BBX 9 24 1 -5
BITMAP
E380
E380
E700
E700
E600
EE00
EC00
FC00
FC00
FE00
FE00
FE00
E700
E700
E700
E700
E380
E380
E380
0000
1C00
1C00
1C00
0800
ENDCHAR
STARTCHAR kgreenlandic
ENCODING 312
SWIDTH 414 0
DWIDTH 11 0
BBX 9 19 1 0
BITMAP
E380
E380
E700
E700
E600
EE00
EC00
FC00
FC00
FE00
FE00
FE00
E700
E700
E700
E700
E380
E380
E380
ENDCHAR
STARTCHAR Lacute
ENCODING 313
SWIDTH 344 0
DWIDTH 9 0
BBX 8 23 1 0
BITMAP
38
70
E0
00
E0
E0
E0
E0
E0
E0
E0
E0
E0
E0
E0
E0
E0
E0
E0
E0
FF
FF
FF
ENDCHAR
STARTCHAR lacute
ENCODING 314
SWIDTH 344 0
DWIDTH 9 0
BBX 8 23 1 0
BITMAP
38
70
E0
00
E0
E0
E0
E0
E0
E0
E0
E0
E0
E0
E0
E0
E0
E0
E0
E0
FF
FF
FF
ENDCHAR
STARTCHAR uni013B
ENCODING 315
SWIDTH 344 0
DWIDTH 9 0
BBX 8 24 1 -5
BITMAP
E0
E0
E0
E0
E0
E0
E0
E0
E0
E0
E0
E0
E0
E0
E0
E0
FF
FF
FF
00
18
18
18
18
ENDCHAR
STARTCHAR uni013C
ENCODING 316
SWIDTH 344 0
DWIDTH 9 0
BBX 8 24 1 -5
BITMAP
E0
E0
E0
E0
E0
E0
E0
E0
E0
E0
E0
E0
E0
E0
E0
E0
FF
FF
FF
00
18
18
18
18
ENDCHAR
STARTCHAR Lcaron
ENCODING 317
SWIDTH 344 0
DWIDTH 9 0
BBX 8 19 1 0
BITMAP
EE
EE
EE
E6
E4
E4
E0
E0
E0
E0
E0
E0
E0
E0
E0
E0
FF
FF
FF
ENDCHAR
STARTCHAR lcaron
ENCODING 318
SWIDTH 344 0
DWIDTH 9 0
BBX 8 19 1 0
BITMAP
EE
EE
EE
E6
E4
E4
E0
E0
E0
E0
E0
E0
E0
E0
E0
E0
FF
FF
FF
ENDCHAR
STARTCHAR Ldot
ENCODING 319
SWIDTH 343 0
DWIDTH 9 0
BBX 8 19 1 0
BITMAP
E0
E0
E0
E0
E0
E0
E0
E0
E6
E6
E6
E0
E0
E0
E0
E0
FF
FF
FF
ENDCHAR
STARTCHAR ldot
ENCODING 320
SWIDTH 343 0
DWIDTH 9 0
BBX 8 19 1 0
BITMAP
E0
E0
E0
E0
E0
E0
E0
E0
E6
E6
E6
E0
E0
E0
E0
E0
FF
FF
FF
ENDCHAR
STARTCHAR Lslash
ENCODING 321
SWIDTH 364 0
DWIDTH 9 0
BBX 9 19 0 0
BITMAP
3000
3000
3000
3000
3000
3100
3300
3700
3E00
3C00
3800
3000
7000
F000
F000
B000
3F80
3F80
3F80
ENDCHAR
STARTCHAR lslash
ENCODING 322
SWIDTH 364 0
DWIDTH 9 0
BBX 9 19 0 0
BITMAP
3000
3000
3000
3000
3000
3100
3300
3700
3E00
3C00
3800
3000
7000
F000
F000
B000
3F80
3F80
3F80
ENDCHAR
STARTCHAR Nacute
ENCODING 323
SWIDTH 427 0
DWIDTH 11 0
BBX 9 23 1 0
BITMAP
0700
0E00
1C00
0000
F380
F380
F380
FB80
FB80
FB80
FB80
FB80
FF80
EF80
EF80
EF80
EF80
E780
E780
E780
E780
E380
E380
ENDCHAR
STARTCHAR nacute
ENCODING 324
SWIDTH 427 0
DWIDTH 11 0
BBX 9 23 1 0
BITMAP
0700
0E00
1C00
0000
F380
F380
F380
FB80
FB80
FB80
FB80
FB80
FF80
EF80
EF80
EF80
EF80
E780
E780
E780
E780
E380
E380
ENDCHAR
STARTCHAR uni0145
ENCODING 325
SWIDTH 427 0
DWIDTH 11 0
BBX 9 24 1 -5
BITMAP
F380
F380
F380
FB80
FB80
FB80
FB80
FB80
FF80
EF80
EF80
EF80
EF80
E780
E780
E780
E780
E380
E380
0000
1C00
1C00
1C00
0800
ENDCHAR
STARTCHAR uni0146
ENCODING 326
SWIDTH 427 0
DWIDTH 11 0
BBX 9 24 1 -5
BITMAP
F380
F380
F380
FB80
FB80
FB80
FB80
FB80
FF80
EF80
EF80
EF80
EF80
E780
E780
E780
E780
E380
E380
0000
1C00
1C00
1C00
0800
ENDCHAR
STARTCHAR Ncaron
ENCODING 327
SWIDTH 427 0
DWIDTH 11 0
BBX 9 23 1 0
BITMAP
7700
3E00
1C00
0000
F380
F380
F380
FB80
FB80
FB80
FB80
FB80
FF80
EF80
EF80
EF80
EF80
E780
E780
E780
E780
E380
E380
ENDCHAR
STARTCHAR ncaron
ENCODING 328
SWIDTH 427 0
DWIDTH 11 0
BBX 9 23 1 0
BITMAP
7700
3E00
1C00
0000
F380
F380
F380
FB80
FB80
FB80
FB80
FB80
FF80
EF80
EF80
EF80
EF80
E780
E780
E780
E780
E380
E380
ENDCHAR
STARTCHAR napostrophe
ENCODING 329
SWIDTH 542 0
DWIDTH 14 0
BBX 13 19 0 0
BITMAP
EF38
EF38
EF38
6F38
4FB8
8FB8
0FB8
0FB8
0FF8
0EF8
0EF8
0EF8
0EF8
0E78
0E78
0E78
0E78
0E38
0E38
ENDCHAR
STARTCHAR Eng
ENCODING 330
SWIDTH 427 0
DWIDTH 11 0
BBX 9 24 1 -5
BITMAP
F380
F380
F380
FB80
FB80
FB80
FB80
FF80
EF80
EF80
EF80
EF80
E780
E780
E780
E780
E380
E380
E380
0380
0380
0F80
0F00
0800
ENDCHAR
STARTCHAR eng
ENCODING 331
SWIDTH 427 0
DWIDTH 11 0
BBX 9 24 1 -5
BITMAP
F380
F380
F380
FB80
FB80
FB80
FB80
FF80
EF80
EF80
EF80
EF80
E780
E780
E780
E780
E380
E380
E380
0380
0380
0F80
0F00
0800
ENDCHAR
STARTCHAR Omacron
ENCODING 332
SWIDTH 400 0
DWIDTH 10 0
BBX 9 23 1 0
BITMAP
7E00
7E00
7E00
0000
3C00
7F00
FF00
E300
E380
E380
E380
E380
E380
E380
E380
E380
E380
E380
E380
E300
FF00
7F00
3C00
ENDCHAR
STARTCHAR omacron
ENCODING 333
SWIDTH 400 0
DWIDTH 10 0
BBX 9 23 1 0
BITMAP
7E00
7E00
7E00
0000
3C00
7F00
FF00
E300
E380
E380
E380
E380
E380
E380
E380
E380
E380
E380
E380
E300
FF00
7F00
3C00
ENDCHAR
STARTCHAR Obreve
ENCODING 334
SWIDTH 400 0
DWIDTH 10 0
BBX 9 23 1 0
BITMAP
6600
7E00
3C00
0000
3C00
7F00
FF00
E300
E380
E380
E380
E380
E380
E380
E380
E380
E380
E380
E380
E300
FF00
7F00
3C00
ENDCHAR
STARTCHAR obreve
ENCODING 335
SWIDTH 400 0
DWIDTH 10 0
BBX 9 23 1 0
BITMAP
6600
7E00
3C00
0000
3C00
7F00
FF00
E300
E380
E380
E380
E380
E380
E380
E380
E380
E380
E380
E380
E300
FF00
7F00
3C00
ENDCHAR
STARTCHAR Ohungarumlaut
ENCODING 336
SWIDTH 400 0
DWIDTH 10 0
BBX 9 23 1 0
BITMAP
3B80
3300
6600
0000
3C00
7F00
FF00
E300
E380
E380
E380
E380
E380
E380
E380
E380
E380
E380
E380
E300
FF00
7F00
3C00
ENDCHAR
STARTCHAR ohungarumlaut
ENCODING 337
SWIDTH 400 0
DWIDTH 10 0
BBX 9 23 1 0
BITMAP
3B80
3300
6600
0000
3C00
7F00
FF00
E300
E380
E380
E380
E380
E380
E380
E380
E380
E380
E380
E380
E300
FF00
7F00
3C00
ENDCHAR
STARTCHAR OE
ENCODING 338
SWIDTH 577 0
DWIDTH 15 0
BBX 13 19 1 0
BITMAP
3FF8
7FF8
FFF8
E300
E300
E300
E300
E300
E3F0
E3F0
E3F0
E300
E300
E300
E300
E300
FFF8
7FF8
3FF8
ENDCHAR
STARTCHAR oe
ENCODING 339
SWIDTH 577 0
DWIDTH 15 0
BBX 13 19 1 0
BITMAP
3FF8
7FF8
FFF8
E300
E300
E300
E300
E300
E3F0
E3F0
E3F0
E300
E300
E300
E300
E300
FFF8
7FF8
3FF8
ENDCHAR
STARTCHAR Racute
ENCODING 340
SWIDTH 403 0
DWIDTH 10 0
BBX 9 23 1 0
BITMAP
0E00
1C00
3800
0000
FE00
FF00
FF00
E700
E380
E380
E380
E700
FF00
FE00
FF00
E700
E380
E380
E380
E380
E380
E380
E380
ENDCHAR
STARTCHAR racute
ENCODING 341
SWIDTH 403 0
DWIDTH 10 0
BBX 9 23 1 0
BITMAP
0E00
1C00
3800
0000
FE00
FF00
FF00
E700
E380
E380
E380
E700
FF00
FE00
FF00
E700
E380
E380
E380
E380
E380
E380
E380
ENDCHAR
STARTCHAR uni0156
ENCODING 342
SWIDTH 403 0
DWIDTH 10 0
BBX 9 24 1 -5
BITMAP
FE00
FF00
FF00
E700
E380
E380
E380
E700
FF00
FE00
FF00
E700
E380
E380
E380
E380
E380
E380
E380
0000
1800
1800
1800
1800
ENDCHAR
STARTCHAR uni0157
ENCODING 343
SWIDTH 403 0
DWIDTH 10 0
BBX 9 24 1 -5
BITMAP
FE00
FF00
FF00
E700
E380
E380
E380
E700
FF00
FE00
FF00
E700
E380
E380
E380
E380
E380
E380
E380
0000
1800
1800
1800
1800
ENDCHAR
STARTCHAR Rcaron
ENCODING 344
SWIDTH 403 0
DWIDTH 10 0
BBX 9 23 1 0
BITMAP
6700
3C00
3C00
0000
FE00
FF00
FF00
E700
E380
E380
E380
E700
FF00
FE00
FF00
E700
E380
E380
E380
E380
E380
E380
E380
ENDCHAR
STARTCHAR rcaron
ENCODING 345
SWIDTH 403 0
DWIDTH 10 0
BBX 9 23 1 0
BITMAP
6700
3C00
3C00
0000
FE00
FF00
FF00
E700
E380
E380
E380
E700
FF00
FE00
FF00
E700
E380
E380
E380
E380
E380
E380
E380
ENDCHAR
STARTCHAR Sacute
ENCODING 346
SWIDTH 372 0
DWIDTH 10 0
BBX 8 23 1 0
BITMAP
0E
1C
38
00
3C
FE
FF
E7
C7
E0
E0
F0
78
3C
1E
0F
07
C7
C7
C7
FF
FE
7C
ENDCHAR
STARTCHAR sacute
ENCODING 347
SWIDTH 372 0
DWIDTH 10 0
BBX 8 23 1 0
BITMAP
0E
1C
38
00
3C
FE
FF
E7
C7
E0
E0
F0
78
3C
1E
0F
07
C7
C7
C7
FF
FE
7C
ENDCHAR
STARTCHAR Scircumflex
ENCODING 348
SWIDTH 372 0
DWIDTH 10 0
BBX 8 23 1 0
BITMAP
3C
7C
E6
00
3C
FE
FF
E7
C7
E0
E0
F0
78
3C
1E
0F
07
C7
C7
C7
FF
FE
7C
ENDCHAR
STARTCHAR scircumflex
ENCODING 349
SWIDTH 372 0
DWIDTH 10 0
BBX 8 23 1 0
BITMAP
3C
7C
E6
00
3C
FE
FF
E7
C7
E0
E0
F0
78
3C
1E
0F
07
C7
C7
C7
FF
FE
7C
ENDCHAR
STARTCHAR Scedilla
ENCODING 350
SWIDTH 372 0
DWIDTH 10 0
BBX 8 23 1 -4
BITMAP
3C
7E
FF
E7
C7
E7
E0
F0
78
3C
1E
0E
0F
07
C7
C7
E7
FE
7E
10
1C
6C
3C
ENDCHAR
STARTCHAR scedilla
ENCODING 351
SWIDTH 372 0
DWIDTH 10 0
BBX 8 23 1 -4
BITMAP
3C
7E
FF
E7
C7
E7
E0
F0
78
3C
1E
0E
0F
07
C7
C7
E7
FE
7E
10
1C
6C
3C
ENDCHAR
STARTCHAR Scaron
ENCODING 352
SWIDTH 372 0
DWIDTH 10 0
BBX 8 23 1 0
BITMAP
E6
7C
3C
00
3C
FE
FF
E7
C7
E0
E0
F0
78
3C
1E
0F
07
C7
C7
C7
FF
FE
7C
ENDCHAR
STARTCHAR scaron
ENCODING 353
SWIDTH 372 0
DWIDTH 10 0
BBX 8 23 1 0
BITMAP
E6
7C
3C
00
3C
FE
FF
E7
C7
E0
E0
F0
78
3C
1E
0F
07
C7
C7
C7
FF
FE
7C
ENDCHAR
STARTCHAR uni0162
ENCODING 354
SWIDTH 364 0
DWIDTH 9 0
BBX 9 23 0 -4
BITMAP
FF80
FF80
FF80
1C00
1C00
1C00
1C00
1C00
1C00
1C00
1C00
1C00
1C00
1C00
1C00
1C00
1C00
1C00
1C00
0800
0600
3600
1E00
ENDCHAR
STARTCHAR uni0163
ENCODING 355
SWIDTH 364 0
DWIDTH 9 0
BBX 9 23 0 -4
BITMAP
FF80
FF80
FF80
1C00
1C00
1C00
1C00
1C00
1C00
1C00
1C00
1C00
1C00
1C00
1C00
1C00
1C00
1C00
1C00
0800
0600
3600
1E00
ENDCHAR
STARTCHAR Tcaron
ENCODING 356
SWIDTH 364 0
DWIDTH 9 0
BBX 9 23 0 0
BITMAP
7300
3E00
1C00
0000
FF80
FF80
FF80
1C00
1C00
1C00
1C00
1C00
1C00
1C00
1C00
1C00
1C00
1C00
1C00
1C00
1C00
1C00
1C00
ENDCHAR
STARTCHAR tcaron
ENCODING 357
SWIDTH 364 0
DWIDTH 9 0
BBX 9 23 0 0
BITMAP
7300
3E00
1C00
0000
FF80
FF80
FF80
1C00
1C00
1C00
1C00
1C00
1C00
1C00
1C00
1C00
1C00
1C00
1C00
1C00
1C00
1C00
1C00
ENDCHAR
STARTCHAR Tbar
ENCODING 358
SWIDTH 364 0
DWIDTH 9 0
BBX 9 19 0 0
BITMAP
FF80
FF80
FF80
1C00
1C00
1C00
1C00
1C00
7F00
7F00
7F00
1C00
1C00
1C00
1C00
1C00
1C00
1C00
1C00
ENDCHAR
STARTCHAR tbar
ENCODING 359
SWIDTH 364 0
DWIDTH 9 0
BBX 9 19 0 0
BITMAP
FF80
FF80
FF80
1C00
1C00
1C00
1C00
1C00
7F00
7F00
7F00
1C00
1C00
1C00
1C00
1C00
1C00
1C00
1C00
ENDCHAR
STARTCHAR Utilde
ENCODING 360
SWIDTH 402 0
DWIDTH 10 0
BBX 8 23 1 0
BITMAP
3F
7E
7E
00
E3
E3
E3
E3
E3
E3
E3
E3
E3
E3
E3
E3
E3
E3
E3
E3
FF
7F
3E
ENDCHAR
STARTCHAR utilde
ENCODING 361
SWIDTH 402 0
DWIDTH 10 0
BBX 8 23 1 0
BITMAP
3F
7E
7E
00
E3
E3
E3
E3
E3
E3
E3
E3
E3
E3
E3
E3
E3
E3
E3
E3
FF
7F
3E
ENDCHAR
STARTCHAR Umacron
ENCODING 362
SWIDTH 402 0
DWIDTH 10 0
BBX 8 23 1 0
BITMAP
7E
7E
7E
00
E3
E3
E3
E3
E3
E3
E3
E3
E3
E3
E3
E3
E3
E3
E3
E3
FF
7F
3E
ENDCHAR
STARTCHAR umacron
ENCODING 363
SWIDTH 402 0
DWIDTH 10 0
BBX 8 23 1 0
BITMAP
7E
7E
7E
00
E3
E3
E3
E3
E3
E3
E3
E3
E3
E3
E3
E3
E3
E3
E3
E3
FF
7F
3E
ENDCHAR
STARTCHAR Ubreve
ENCODING 364
SWIDTH 402 0
DWIDTH 10 0
BBX 8 23 1 0
BITMAP
66
7E
3C
00
E3
E3
E3
E3
E3
E3
E3
E3
E3
E3
E3
E3
E3
E3
E3
E3
FF
7F
3E
ENDCHAR
STARTCHAR ubreve
ENCODING 365
SWIDTH 402 0
DWIDTH 10 0
BBX 8 23 1 0
BITMAP
66
7E
3C
00
E3
E3
E3
E3
E3
E3
E3
E3
E3
E3
E3
E3
E3
E3
E3
E3
FF
7F
3E
ENDCHAR
STARTCHAR Uring
ENCODING 366
SWIDTH 402 0
DWIDTH 10 0
BBX 8 24 1 0
BITMAP
1C
34
26
3C
00
E3
E3
E3
E3
E3
E3
E3
E3
E3
E3
E3
E3
E3
E3
E3
E3
FF
7F
3E
ENDCHAR
STARTCHAR uring
ENCODING 367
SWIDTH 402 0
DWIDTH 10 0
BBX 8 24 1 0
BITMAP
1C
34
26
3C
00
E3
E3
E3
E3
E3
E3
E3
E3
E3
E3
E3
E3
E3
E3
E3
E3
FF
7F
3E
ENDCHAR
STARTCHAR Uhungarumlaut
ENCODING 368
SWIDTH 402 0
DWIDTH 10 0
BBX 9 23 1 0
BITMAP
3B80
3300
6600
0000
E300
E300
E300
E300
E300
E300
E300
E300
E300
E300
E300
E300
E300
E300
E300
E300
FF00
7F00
3E00
ENDCHAR
STARTCHAR uhungarumlaut
ENCODING 369
SWIDTH 402 0
DWIDTH 10 0
BBX 9 23 1 0
BITMAP
3B80
3300
6600
0000
E300
E300
E300
E300
E300
E300
E300
E300
E300
E300
E300
E300
E300
E300
E300
E300
FF00
7F00
3E00
ENDCHAR
STARTCHAR Uogonek
ENCODING 370
SWIDTH 402 0
DWIDTH 10 0
BBX 8 23 1 -4
BITMAP
E3
E3
E3
E3
E3
E3
E3
E3
E3
E3
E3
E3
E3
E3
E3
E3
FF
7F
3C
18
18
1E
0E
ENDCHAR
STARTCHAR uogonek
ENCODING 371
SWIDTH 402 0
DWIDTH 10 0
BBX 8 23 1 -4
BITMAP
E3
E3
E3
E3
E3
E3
E3
E3
E3
E3
E3
E3
E3
E3
E3
E3
FF
7F
3C
18
18
1E
0E
ENDCHAR
STARTCHAR Wcircumflex
ENCODING 372
SWIDTH 557 0
DWIDTH 14 0
BBX 14 23 0 0
BITMAP
0380
07C0
0CE0
0000
E38C
639C
639C
679C
779C
779C
77D8
76D8
76D8
76D8
76D8
36D8
36D8
36F8
3EF8
3CF8
3CF8
3C70
3C70
ENDCHAR
STARTCHAR wcircumflex
ENCODING 373
SWIDTH 557 0
DWIDTH 14 0
BBX 14 23 0 0
BITMAP
0380
07C0
0CE0
0000
E38C
639C
639C
679C
779C
779C
77D8
76D8
76D8
76D8
76D8
36D8
36D8
36F8
3EF8
3CF8
3CF8
3C70
3C70
ENDCHAR
STARTCHAR Ycircumflex
ENCODING 374
SWIDTH 394 0
DWIDTH 10 0
BBX 10 23 0 0
BITMAP
1E00
1F00
3380
0000
E1C0
71C0
7180
7380
3B80
3B00
3F00
1F00
1E00
1E00
0E00
0E00
0E00
0E00
0E00
0E00
0E00
0E00
0E00
ENDCHAR
STARTCHAR ycircumflex
ENCODING 375
SWIDTH 394 0
DWIDTH 10 0
BBX 10 23 0 0
BITMAP
1E00
1F00
3380
0000
E1C0
71C0
7180
7380
3B80
3B00
3F00
1F00
1E00
1E00
0E00
0E00
0E00
0E00
0E00
0E00
0E00
0E00
0E00
ENDCHAR
STARTCHAR Ydieresis
ENCODING 376
SWIDTH 394 0
DWIDTH 10 0
BBX 10 23 0 0
BITMAP
3300
3300
3300
0000
E1C0
71C0
7180
7380
3B80
3B00
3F00
1F00
1E00
1E00
0E00
0E00
0E00
0E00
0E00
0E00
0E00
0E00
0E00
ENDCHAR
STARTCHAR Zacute
ENCODING 377
SWIDTH 362 0
DWIDTH 9 0
BBX 9 23 0 0
BITMAP
0700
0E00
1C00
0000
7F80
7F80
7F80
0780
0700
0700
0E00
0E00
0E00
1C00
1C00
3800
3800
3800
7000
7000
FF80
FF80
FF80
ENDCHAR
STARTCHAR zacute
ENCODING 378
SWIDTH 362 0
DWIDTH 9 0
BBX 9 23 0 0
BITMAP
0700
0E00
1C00
0000
7F80
7F80
7F80
0780
0700
0700
0E00
0E00
0E00
1C00
1C00
3800
3800
3800
7000
7000
FF80
FF80
FF80
ENDCHAR
STARTCHAR Zdotaccent
ENCODING 379
SWIDTH 362 0
DWIDTH 9 0
BBX 9 23 0 0
BITMAP
0C00
0C00
0C00
0000
7F80
7F80
7F80
0780
0700
0700
0E00
0E00
0E00
1C00
1C00
3800
3800
3800
7000
7000
FF80
FF80
FF80
ENDCHAR
STARTCHAR zdotaccent
ENCODING 380
SWIDTH 362 0
DWIDTH 9 0
BBX 9 23 0 0
BITMAP
0C00
0C00
0C00
0000
7F80
7F80
7F80
0780
0700
0700
0E00
0E00
0E00
1C00
1C00
3800
3800
3800
7000
7000
FF80
FF80
FF80
ENDCHAR
STARTCHAR Zcaron
ENCODING 381
SWIDTH 362 0
DWIDTH 9 0
BBX 9 23 0 0
BITMAP
7300
3E00
1E00
0000
7F80
7F80
7F80
0780
0700
0700
0E00
0E00
0E00
1C00
1C00
3800
3800
3800
7000
7000
FF80
FF80
FF80
ENDCHAR
STARTCHAR zcaron
ENCODING 382
SWIDTH 362 0
DWIDTH 9 0
BBX 9 23 0 0
BITMAP
7300
3E00
1E00
0000
7F80
7F80
7F80
0780
0700
0700
0E00
0E00
0E00
1C00
1C00
3800
3800
3800
7000
7000
FF80
FF80
FF80
ENDCHAR
STARTCHAR florin
ENCODING 402
SWIDTH 400 0
DWIDTH 10 0
BBX 10 21 0 -1
BITMAP
3600
FE00
FF80
FF80
3380
31C0
31C0
3180
3380
3F80
3F00
3F80
31C0
31C0
31C0
31C0
FFC0
FF80
FF00
3600
3600
ENDCHAR
STARTCHAR AEacute
ENCODING 508
SWIDTH 580 0
DWIDTH 15 0
BBX 15 23 0 0
BITMAP
00E0
01C0
0380
0000
07FE
07FE
0FFE
0FC0
0DC0
0DC0
1DC0
1DC0
1DFC
19FC
39FC
39C0
39C0
3FC0
7FC0
7FC0
71FE
61FE
E1FE
ENDCHAR
STARTCHAR aeacute
ENCODING 509
SWIDTH 580 0
DWIDTH 15 0
BBX 15 23 0 0
BITMAP
00E0
01C0
0380
0000
07FE
07FE
0FFE
0FC0
0DC0
0DC0
1DC0
1DC0
1DFC
19FC
39FC
39C0
39C0
3FC0
7FC0
7FC0
71FE
61FE
E1FE
ENDCHAR
STARTCHAR Oslashacute
ENCODING 510
SWIDTH 400 0
DWIDTH 10 0
BBX 9 23 1 0
BITMAP
0F00
0C00
1800
0000
3D80
7F00
FF00
E300
E780
E780
EF80
EF80
EF80
FB80
FB80
F380
F380
F380
E380
E300
FF00
FF00
FC00
ENDCHAR
STARTCHAR oslashacute
ENCODING 511
SWIDTH 400 0
DWIDTH 10 0
BBX 9 23 1 0
BITMAP
0F00
0C00
1800
0000
3D80
7F00
FF00
E300
E780
E780
EF80
EF80
EF80
FB80
FB80
F380
F380
F380
E380
E300
FF00
FF00
FC00
ENDCHAR
STARTCHAR uni0218
ENCODING 536
SWIDTH 372 0
DWIDTH 10 0
BBX 8 24 1 -5
BITMAP
3C
FE
FF
E7
C7
E0
E0
F0
78
3C
1E
0F
07
C7
C7
C7
FF
FE
7C
00
18
18
18
18
ENDCHAR
STARTCHAR uni0219
ENCODING 537
SWIDTH 372 0
DWIDTH 10 0
BBX 8 24 1 -5
BITMAP
3C
FE
FF
E7
C7
E0
E0
F0
78
3C
1E
0F
07
C7
C7
C7
FF
FE
7C
00
18
18
18
18
ENDCHAR
STARTCHAR uni021A
ENCODING 538
SWIDTH 364 0
DWIDTH 9 0
BBX 9 24 0 -5
BITMAP
FF80
FF80
FF80
1C00
1C00
1C00
1C00
1C00
1C00
1C00
1C00
1C00
1C00
1C00
1C00
1C00
1C00
1C00
1C00
0000
0C00
0C00
0C00
0800
ENDCHAR
STARTCHAR uni021B
ENCODING 539
SWIDTH 364 0
DWIDTH 9 0
BBX 9 24 0 -5
BITMAP
FF80
FF80
FF80
1C00
1C00
1C00
1C00
1C00
1C00
1C00
1C00
1C00
1C00
1C00
1C00
1C00
1C00
1C00
1C00
0000
0C00
0C00
0C00
0800
ENDCHAR
STARTCHAR uni0237
ENCODING 567
SWIDTH 265 0
DWIDTH 7 0
BBX 6 19 0 0
BITMAP
1C
1C
1C
1C
1C
1C
1C
1C
1C
1C
1C
1C
1C
1C
1C
1C
FC
F8
F0
ENDCHAR
STARTCHAR uni02BC
ENCODING 700
SWIDTH 0 0
DWIDTH 0 0
BBX 2 5 -1 14
BITMAP
C0
C0
C0
40
C0
ENDCHAR
STARTCHAR circumflex
ENCODING 710
SWIDTH 500 0
DWIDTH 13 0
BBX 7 3 3 20
BITMAP
38
7C
EE
ENDCHAR
STARTCHAR caron
ENCODING 711
SWIDTH 500 0
DWIDTH 13 0
BBX 7 3 3 20
BITMAP
EE
7C
38
ENDCHAR
STARTCHAR uni02C9
ENCODING 713
SWIDTH 500 0
DWIDTH 13 0
BBX 5 3 4 20
BITMAP
F8
F8
F8
ENDCHAR
STARTCHAR breve
ENCODING 728
SWIDTH 500 0
DWIDTH 13 0
BBX 7 3 3 20
BITMAP
C6
7C
38
ENDCHAR
STARTCHAR dotaccent
ENCODING 729
SWIDTH 500 0
DWIDTH 13 0
BBX 3 3 5 20
BITMAP
E0
E0
E0
ENDCHAR
STARTCHAR ring
ENCODING 730
SWIDTH 500 0
DWIDTH 13 0
BBX 5 4 4 20
BITMAP
70
D8
D8
70
ENDCHAR
STARTCHAR ogonek
ENCODING 731
SWIDTH 500 0
DWIDTH 13 0
BBX 5 4 4 -4
BITMAP
30
60
F8
78
ENDCHAR
STARTCHAR tilde
ENCODING 732
SWIDTH 500 0
DWIDTH 13 0
BBX 7 3 3 20
BITMAP
7E
FE
FC
ENDCHAR
STARTCHAR hungarumlaut
ENCODING 733
SWIDTH 500 0
DWIDTH 13 0
BBX 9 3 3 20
BITMAP
3B80
7700
EE00
ENDCHAR
STARTCHAR gravecomb
ENCODING 768
SWIDTH 0 0
DWIDTH 0 0
BBX 5 3 -3 20
BITMAP
E0
70
38
ENDCHAR
STARTCHAR acutecomb
ENCODING 769
SWIDTH 0 0
DWIDTH 0 0
BBX 5 3 -2 20
BITMAP
38
70
E0
ENDCHAR
STARTCHAR uni0302
ENCODING 770
SWIDTH 0 0
DWIDTH 0 0
BBX 6 3 -3 20
BITMAP
78
78
CC
ENDCHAR
STARTCHAR tildecomb
ENCODING 771
SWIDTH 0 0
DWIDTH 0 0
BBX 8 3 -4 20
BITMAP
3F
7E
FC
ENDCHAR
STARTCHAR uni0304
ENCODING 772
SWIDTH 0 0
DWIDTH 0 0
BBX 6 3 -3 20
BITMAP
FC
FC
FC
ENDCHAR
STARTCHAR uni0306
ENCODING 774
SWIDTH 0 0
DWIDTH 0 0
BBX 6 3 -3 20
BITMAP
CC
FC
78
ENDCHAR
STARTCHAR uni0307
ENCODING 775
SWIDTH 0 0
DWIDTH 0 0
BBX 2 3 -1 20
BITMAP
C0
C0
C0
ENDCHAR
STARTCHAR uni0308
ENCODING 776
SWIDTH 0 0
DWIDTH 0 0
BBX 6 3 -3 20
BITMAP
CC
CC
CC
ENDCHAR
STARTCHAR uni030A
ENCODING 778
SWIDTH 0 0
DWIDTH 0 0
BBX 4 4 -2 20
BITMAP
60
90
90
F0
ENDCHAR
STARTCHAR uni030B
ENCODING 779
SWIDTH 0 0
DWIDTH 0 0
BBX 8 3 -3 20
BITMAP
77
66
DC
ENDCHAR
STARTCHAR uni030C
ENCODING 780
SWIDTH 0 0
DWIDTH 0 0
BBX 6 3 -3 20
BITMAP
CC
78
78
ENDCHAR
STARTCHAR uni0312
ENCODING 786
SWIDTH 0 0
DWIDTH 0 0
BBX 2 4 -1 20
BITMAP
40
80
C0
C0
ENDCHAR
STARTCHAR uni0326
ENCODING 806
SWIDTH 0 0
DWIDTH 0 0
BBX 2 4 -1 -5
BITMAP
C0
C0
C0
C0
ENDCHAR
STARTCHAR uni0327
ENCODING 807
SWIDTH 0 0
DWIDTH 0 0
BBX 5 4 -3 -4
BITMAP
30
38
D8
78
ENDCHAR
STARTCHAR uni0328
ENCODING 808
SWIDTH 0 0
DWIDTH 0 0
BBX 4 4 -2 -4
BITMAP
60
C0
F0
F0
ENDCHAR
STARTCHAR uni0335
ENCODING 821
SWIDTH 0 0
DWIDTH 0 0
BBX 6 3 -3 8
BITMAP
FC
FC
FC
ENDCHAR
STARTCHAR uni0336
ENCODING 822
SWIDTH 0 0
DWIDTH 0 0
BBX 10 3 -5 8
BITMAP
FFC0
FFC0
FFC0
ENDCHAR
STARTCHAR uni0337
ENCODING 823
SWIDTH 0 0
DWIDTH 0 0
BBX 8 20 -4 -1
BITMAP
01
03
03
02
06
04
04
0C
08
18
18
10
30
20
60
60
40
C0
80
80
ENDCHAR
STARTCHAR uni0338
ENCODING 824
SWIDTH 0 0
DWIDTH 0 0
BBX 10 20 -5 -1
BITMAP
00C0
0180
0180
0180
0300
0300
0600
0600
0600
0C00
0C00
1800
1800
1000
3000
3000
6000
6000
C000
4000
ENDCHAR
STARTCHAR Alpha
ENCODING 913
SWIDTH 748 0
DWIDTH 19 0
BBX 18 18 1 0
BITMAP
00C000
00C000
00E000
01E000
017000
037000
027000
023800
063800
043800
041C00
0FFC00
080C00
180E00
100E00
100600
300700
F81FC0
ENDCHAR
STARTCHAR Beta
ENCODING 914
SWIDTH 714 0
DWIDTH 19 0
BBX 16 18 1 0
BITMAP
FFF0
181C
180C
180E
180E
180E
180C
1818
1FF0
1838
180C
180E
1806
1807
1806
180E
181C
FFF8
ENDCHAR
STARTCHAR Gamma
ENCODING 915
SWIDTH 635 0
DWIDTH 17 0
BBX 15 18 1 0
BITMAP
FFFE
180E
1806
1802
1802
1800
1800
1800
1800
1800
1800
1800
1800
1800
1800
1800
1800
FF00
ENDCHAR
STARTCHAR uni0394
ENCODING 916
SWIDTH 615 0
DWIDTH 16 0
BBX 14 18 1 0
BITMAP
0100
0380
0380
0780
05C0
05C0
08C0
08E0
18E0
1060
1070
2030
2030
2038
4018
4018
FFFC
FFFC
ENDCHAR
STARTCHAR Epsilon
ENCODING 917
SWIDTH 692 0
DWIDTH 18 0
BBX 16 18 1 0
BITMAP
FFFE
180E
1806
1802
1802
1820
1820
1820
1FE0
1860
1820
1820
1821
1802
1802
1806
180E
FFFE
ENDCHAR
STARTCHAR Zeta
ENCODING 918
SWIDTH 659 0
DWIDTH 17 0
BBX 15 18 1 0
BITMAP
7FFC
6038
4038
4070
4060
00E0
01C0
01C0
0380
0700
0700
0E00
1C02
1C02
3802
3006
700E
FFFE
ENDCHAR
STARTCHAR Eta
ENCODING 919
SWIDTH 758 0
DWIDTH 20 0
BBX 18 18 1 0
BITMAP
FE3FC0
180600
180600
180600
180600
180600
180600
180600
1FFE00
180600
180600
180600
180600
180600
180600
180600
180600
FE3FC0
ENDCHAR
STARTCHAR Theta
ENCODING 920
SWIDTH 727 0
DWIDTH 19 0
BBX 16 19 1 0
BITMAP
01C0
0630
181C
380E
3006
7007
7007
6427
6427
E3E7
63E7
6427
7427
7007
7006
300E
180C
0C18
07F0
ENDCHAR
STARTCHAR Iota
ENCODING 921
SWIDTH 380 0
DWIDTH 10 0
BBX 8 18 1 0
BITMAP
FF
18
18
18
18
18
18
18
18
18
18
18
18
18
18
18
18
FF
ENDCHAR
STARTCHAR Kappa
ENCODING 922
SWIDTH 773 0
DWIDTH 20 0
BBX 19 18 1 0
BITMAP
FE1F80
180E00
180800
181800
181000
182000
184000
18E000
19E000
1A7000
1C3800
183800
181C00
181C00
180E00
180600
180700
FE1FE0
ENDCHAR
STARTCHAR Lambda
ENCODING 923
SWIDTH 740 0
DWIDTH 19 0
BBX 18 18 1 0
BITMAP
00C000
00C000
00E000
01E000
016000
027000
027000
023000
043800
043800
081800
081C00
081C00
100C00
100E00
100E00
300700
F81FC0
ENDCHAR
STARTCHAR Mu
ENCODING 924
SWIDTH 911 0
DWIDTH 24 0
BBX 20 18 2 0
BITMAP
F801F0
3803C0
3C03C0
3C03C0
2C05C0
2E05C0
2E09C0
2609C0
2709C0
2311C0
2391C0
23A1C0
21A1C0
21E1C0
21C1C0
20C1C0
2081C0
F887F0
ENDCHAR
STARTCHAR Nu
ENCODING 925
SWIDTH 733 0
DWIDTH 19 0
BBX 17 18 1 0
BITMAP
FC0F80
1C0200
2E0200
270200
270200
238200
21C200
21C200
20E200
207200
207200
203A00
201A00
201E00
200E00
200600
300600
FC0200
ENDCHAR
STARTCHAR Xi
ENCODING 926
SWIDTH 718 0
DWIDTH 19 0
BBX 15 18 2 0
BITMAP
FFFE
FFFE
C006
8002
0000
0000
1010
1010
1FF0
1FF0
1010
1010
0000
8002
8002
8006
FFFE
FFFE
ENDCHAR
STARTCHAR Omicron
ENCODING 927
SWIDTH 718 0
DWIDTH 19 0
BBX 15 18 2 0
BITMAP
0FE0
3038
301C
600C
E00E
E00E
E00E
C00E
C00E
C00E
E00E
E00E
E00E
600C
601C
3018
1830
0FE0
ENDCHAR
STARTCHAR Pi
ENCODING 928
SWIDTH 727 0
DWIDTH 19 0
BBX 17 18 1 0
BITMAP
FFFF80
380E00
380E00
380E00
380E00
380E00
380E00
380E00
380E00
380E00
380E00
380E00
380E00
380E00
380E00
380E00
380E00
FE3F80
ENDCHAR
STARTCHAR Rho
ENCODING 929
SWIDTH 605 0
DWIDTH 16 0
BBX 14 18 1 0
BITMAP
FFE0
3838
3818
381C
381C
380C
381C
381C
3838
3FE0
3800
3800
3800
3800
3800
3800
3800
FE00
ENDCHAR
STARTCHAR Sigma
ENCODING 931
SWIDTH 701 0
DWIDTH 18 0
BBX 16 18 1 0
BITMAP
FFFE
780E
3806
1C02
0E02
0700
0780
0380
01C0
0080
0100
0200
0401
0803
1803
3006
7FFE
FFFE
ENDCHAR
STARTCHAR Tau
ENCODING 932
SWIDTH 669 0
DWIDTH 17 0
BBX 16 18 1 0
BITMAP
FFFF
E187
C183
8181
8181
0180
0180
0180
0180
0180
0180
0180
0180
0180
0180
0180
0180
0FE0
ENDCHAR
STARTCHAR Upsilon
ENCODING 933
SWIDTH 618 0
DWIDTH 16 0
BBX 16 18 0 0
BITMAP
F01F
0C23
0627
0647
0340
0340
0380
0380
0180
0180
0180
0180
0180
0180
0180
0180
0180
0FE0
ENDCHAR
STARTCHAR Phi
ENCODING 934
SWIDTH 733 0
DWIDTH 19 0
BBX 17 18 1 0
BITMAP
07F000
01C000
03E000
1DDC00
31C600
61C700
E1C300
E1C380
E1C380
E1C380
E1C380
E1C300
61C700
31CE00
1FF800
01C000
01C000
07F000
ENDCHAR
STARTCHAR Chi
ENCODING 935
SWIDTH 744 0
DWIDTH 19 0
BBX 19 18 0 0
BITMAP
7F0FC0
1C0300
0E0200
0F0400
070800
039000
01D000
01E000
00E000
00F000
00F800
013800
021C00
040E00
040F00
080700
300380
FC0FE0
ENDCHAR
STARTCHAR Psi
ENCODING 936
SWIDTH 858 0
DWIDTH 22 0
BBX 21 18 1 0
BITMAP
E3FC70
306098
3060B8
3060B8
306180
306100
306100
306100
386100
186300
0E6600
03F800
006000
006000
006000
006000
006000
03FC00
ENDCHAR
STARTCHAR uni03A9
ENCODING 937
SWIDTH 754 0
DWIDTH 20 0
BBX 17 18 1 0
BITMAP
07F800
1C0C00
380600
700700
700380
600380
E00380
E00380
E00380
600380
600380
700300
300700
180E00
8C1880
C22080
FE3F80
FE3F80
ENDCHAR
STARTCHAR Iotadieresis
ENCODING 938
SWIDTH 380 0
DWIDTH 10 0
BBX 8 22 1 0
BITMAP
42
E7
43
00
FF
18
18
18
18
18
18
18
18
18
18
18
18
18
18
18
18
FF
ENDCHAR
STARTCHAR Upsilondieresis
ENCODING 939
SWIDTH 618 0
DWIDTH 16 0
BBX 16 22 0 0
BITMAP
0C20
0E70
0420
8000
701F
0C23
0627
0647
0340
0340
0380
0380
0180
0180
0180
0180
0180
0180
0180
0180
0180
0FE0
ENDCHAR
STARTCHAR alphatonos
ENCODING 940
SWIDTH 627 0
DWIDTH 16 0
BBX 15 19 1 0
BITMAP
0040
00C0
0180
0100
0200
0200
0000
1F1C
3F9C
7098
6078
6070
E070
C060
C0E0
C0E0
4192
639E
3F1C
ENDCHAR
STARTCHAR epsilontonos
ENCODING 941
SWIDTH 479 0
DWIDTH 12 0
BBX 10 19 1 0
BITMAP
0180
0180
0300
0200
0400
0800
0000
3F80
7FC0
61C0
C000
4000
3E00
7E00
8000
8000
C040
7FC0
3F80
ENDCHAR
STARTCHAR etatonos
ENCODING 942
SWIDTH 529 0
DWIDTH 14 0
BBX 12 25 1 -6
BITMAP
00C0
00C0
0180
0100
0200
0400
0000
E1E0
F3E0
F610
1610
0C10
0C10
0C10
1830
1830
1830
1830
3020
0060
0060
0070
0070
0070
0070
ENDCHAR
STARTCHAR iotatonos
ENCODING 943
SWIDTH 308 0
DWIDTH 8 0
BBX 5 19 2 0
BITMAP
10
38
30
60
40
80
00
E0
C0
C0
C0
C0
80
80
80
90
98
B8
F0
ENDCHAR
STARTCHAR upsilondieresistonos
ENCODING 944
SWIDTH 563 0
DWIDTH 15 0
BBX 13 19 1 0
BITMAP
0300
0300
0600
66C0
64C0
0800
0000
60C0
E060
6030
6030
6030
6038
E038
E030
6070
6060
60C0
1F80
ENDCHAR
STARTCHAR alpha
ENCODING 945
SWIDTH 627 0
DWIDTH 16 0
BBX 15 12 1 0
BITMAP
1F1C
3F98
7098
6078
E070
E070
C060
C0E0
C0E0
4192
639E
3F0C
ENDCHAR
STARTCHAR beta
ENCODING 946
SWIDTH 536 0
DWIDTH 14 0
BBX 12 24 1 -6
BITMAP
1FC0
3040
7060
6060
6060
60E0
47C0
4F80
4660
4020
4030
4030
4030
4030
4070
6060
51E0
4F80
4000
6000
6000
E000
E000
6000
ENDCHAR
STARTCHAR gamma
ENCODING 947
SWIDTH 538 0
DWIDTH 14 0
BBX 14 18 0 -6
BITMAP
701C
F83C
9C78
0C60
0440
0680
0280
0280
0300
0100
0100
0100
0100
0300
0300
0300
0380
0300
ENDCHAR
STARTCHAR delta
ENCODING 948
SWIDTH 561 0
DWIDTH 15 0
BBX 12 19 1 0
BITMAP
1C00
2F80
23E0
30F0
1870
0E10
0700
0180
1FC0
7060
6070
E030
E030
C030
C030
E070
6060
30C0
1F80
ENDCHAR
STARTCHAR epsilon
ENCODING 949
SWIDTH 479 0
DWIDTH 12 0
BBX 11 12 1 0
BITMAP
3FC0
7FC0
40C0
4000
4000
3E00
4C00
8000
C020
E0E0
7FC0
3F00
ENDCHAR
STARTCHAR zeta
ENCODING 950
SWIDTH 441 0
DWIDTH 11 0
BBX 10 25 1 -6
BITMAP
4000
C1C0
C3C0
F700
1E00
0C00
1800
3000
2000
6000
4000
4000
C000
C000
C000
C000
E000
7F00
3FC0
03C0
0040
0040
0040
0F80
0F00
ENDCHAR
STARTCHAR eta
ENCODING 951
SWIDTH 529 0
DWIDTH 14 0
BBX 12 18 1 -6
BITMAP
E1E0
F3E0
F610
1610
0C10
0C10
0C10
1830
1830
1830
1830
3020
0060
0060
0070
0070
0070
0070
ENDCHAR
STARTCHAR theta
ENCODING 952
SWIDTH 520 0
DWIDTH 14 0
BBX 10 18 2 0
BITMAP
3E00
6100
6180
E180
C0C0
C0C0
C0C0
FFC0
C0C0
C0C0
C0C0
C0C0
C0C0
C1C0
C180
4180
6300
3E00
ENDCHAR
STARTCHAR iota
ENCODING 953
SWIDTH 308 0
DWIDTH 8 0
BBX 5 12 2 0
BITMAP
E0
E0
C0
C0
C0
C0
80
80
88
98
F8
70
ENDCHAR
STARTCHAR kappa
ENCODING 954
SWIDTH 551 0
DWIDTH 14 0
BBX 13 12 1 0
BITMAP
F070
F070
90E0
11C0
1180
0B80
1680
1C80
3880
7090
F0F8
6078
ENDCHAR
STARTCHAR lambda
ENCODING 955
SWIDTH 505 0
DWIDTH 13 0
BBX 12 18 1 0
BITMAP
F000
F800
0400
0400
0200
0600
0600
0700
0D00
0D00
1D00
1980
3980
3080
70C0
60E0
E070
C070
ENDCHAR
STARTCHAR uni03BC
ENCODING 956
SWIDTH 602 0
DWIDTH 16 0
BBX 13 18 2 -6
BITMAP
C0C0
C0C0
C0C0
C0C0
C0C0
C0C0
C0C0
C180
C180
C348
A778
9E70
8000
8000
C000
C000
E000
E000
ENDCHAR
STARTCHAR nu
ENCODING 957
SWIDTH 465 0
DWIDTH 12 0
BBX 11 13 0 -1
BITMAP
6060
F020
7020
3860
1860
1860
08E0
08C0
0DC0
0780
0700
0600
0800
ENDCHAR
STARTCHAR xi
ENCODING 958
SWIDTH 488 0
DWIDTH 13 0
BBX 11 25 2 -6
BITMAP
C000
C3C0
C7C0
7F00
3000
6000
4000
C000
C000
4F80
3F80
4000
C000
8000
8000
8000
C000
FF80
7FC0
00E0
0020
0020
0040
07C0
0780
ENDCHAR
STARTCHAR omicron
ENCODING 959
SWIDTH 536 0
DWIDTH 14 0
BBX 12 12 1 0
BITMAP
1FC0
3860
7060
6030
E030
E030
E030
E030
E070
6060
20E0
1F80
ENDCHAR
STARTCHAR pi
ENCODING 960
SWIDTH 649 0
DWIDTH 17 0
BBX 15 12 1 0
BITMAP
3FFE
7FFE
E420
8820
0860
0860
0860
0860
1820
1832
383C
301C
ENDCHAR
STARTCHAR rho
ENCODING 961
SWIDTH 544 0
DWIDTH 14 0
BBX 13 18 1 -6
BITMAP
0FC0
3860
3030
6030
6030
E038
E030
E030
E070
E070
B0E0
99C0
C600
C000
6000
7000
7000
3000
ENDCHAR
STARTCHAR sigma1
ENCODING 962
SWIDTH 450 0
DWIDTH 12 0
BBX 10 18 1 -6
BITMAP
03C0
1FC0
3F00
7000
4000
8000
8000
8000
8000
C000
7F00
3FC0
01C0
0040
0040
0040
0F80
0F00
ENDCHAR
STARTCHAR sigma
ENCODING 963
SWIDTH 567 0
DWIDTH 15 0
BBX 14 12 1 0
BITMAP
0FFC
3FFC
7840
6060
E030
C030
C030
C070
C070
60E0
20C0
1F80
ENDCHAR
STARTCHAR tau
ENCODING 964
SWIDTH 469 0
DWIDTH 12 0
BBX 12 12 0 0
BITMAP
3FF0
7FF0
4200
8200
0200
0200
0200
0600
0620
0360
03C0
01C0
ENDCHAR
STARTCHAR upsilon
ENCODING 965
SWIDTH 563 0
DWIDTH 15 0
BBX 13 12 1 0
BITMAP
E0C0
6060
6030
6030
6030
6038
E030
E030
6070
6060
20C0
1F80
ENDCHAR
STARTCHAR phi
ENCODING 966
SWIDTH 665 0
DWIDTH 17 0
BBX 15 19 1 -6
BITMAP
0820
3CF8
398C
710E
E106
C106
C306
C306
C30E
C30E
611C
3138
1FE0
0300
0300
0300
0300
0300
0300
ENDCHAR
STARTCHAR chi
ENCODING 967
SWIDTH 483 0
DWIDTH 13 0
BBX 14 18 0 -6
BITMAP
F030
F070
5860
08E0
04C0
0580
0380
0300
0300
0700
0700
0D00
0C80
1880
3880
30D8
707C
6038
ENDCHAR
STARTCHAR psi
ENCODING 968
SWIDTH 694 0
DWIDTH 18 0
BBX 16 24 1 -6
BITMAP
0180
0180
0180
0180
0180
0184
3184
7186
E186
E186
E187
C107
C107
C106
610E
610C
3118
1D70
0180
0180
0180
0180
0180
0180
ENDCHAR
STARTCHAR omega
ENCODING 969
SWIDTH 730 0
DWIDTH 19 0
BBX 17 12 1 0
BITMAP
1C1C00
380E00
700600
700300
600300
E1C380
C1C380
C18380
618380
608300
314700
3E3C00
ENDCHAR
STARTCHAR iotadieresis
ENCODING 970
SWIDTH 308 0
DWIDTH 8 0
BBX 7 16 0 0
BITMAP
C6
C6
00
00
38
38
30
30
30
30
20
20
22
26
2E
1C
ENDCHAR
STARTCHAR upsilondieresis
ENCODING 971
SWIDTH 563 0
DWIDTH 15 0
BBX 13 16 1 0
BITMAP
39C0
39C0
0000
0000
60C0
E060
6030
6030
6030
6038
E038
E030
6070
6060
60C0
1F80
ENDCHAR
STARTCHAR omicrontonos
ENCODING 972
SWIDTH 536 0
DWIDTH 14 0
BBX 12 19 1 -1
BITMAP
00C0
0180
0100
0200
0400
0000
1F80
3860
7060
E030
E030
E030
C030
C070
E070
6060
20C0
1980
0600
ENDCHAR
STARTCHAR upsilontonos
ENCODING 973
SWIDTH 563 0
DWIDTH 15 0
BBX 13 18 1 0
BITMAP
00C0
0180
0100
0200
0600
0000
60C0
E060
6030
6030
6030
6038
E038
E030
6070
6060
60C0
1F80
ENDCHAR
STARTCHAR omegatonos
ENCODING 974
SWIDTH 730 0
DWIDTH 19 0
BBX 17 18 1 0
BITMAP
003000
003000
006000
004000
008000
000000
181800
380C00
700600
600300
E00300
C18300
C1C380
C18380
C18300
608300
618700
3E7E00
ENDCHAR
STARTCHAR uni1E02
ENCODING 7682
SWIDTH 404 0
DWIDTH 11 0
BBX 9 23 1 0
BITMAP
1800
1800
1800
0000
FE00
FF00
FF00
E380
E380
E380
E380
E700
FF00
FE00
FF00
E380
E380
E380
E380
E380
FF80
FF00
FE00
ENDCHAR
STARTCHAR uni1E03
ENCODING 7683
SWIDTH 404 0
DWIDTH 11 0
BBX 9 23 1 0
BITMAP
1800
1800
1800
0000
FE00
FF00
FF00
E380
E380
E380
E380
E700
FF00
FE00
FF00
E380
E380
E380
E380
E380
FF80
FF00
FE00
ENDCHAR
STARTCHAR uni1E0A
ENCODING 7690
SWIDTH 406 0
DWIDTH 11 0
BBX 9 23 1 0
BITMAP
1800
1800
1800
0000
FE00
FF00
FF00
E380
E380
E380
E380
E380
E380
E380
E380
E380
E380
E380
E380
E380
FF00
FF00
FE00
ENDCHAR
STARTCHAR uni1E0B
ENCODING 7691
SWIDTH 406 0
DWIDTH 11 0
BBX 9 23 1 0
BITMAP
1800
1800
1800
0000
FE00
FF00
FF00
E380
E380
E380
E380
E380
E380
E380
E380
E380
E380
E380
E380
E380
FF00
FF00
FE00
ENDCHAR
STARTCHAR uni1E1E
ENCODING 7710
SWIDTH 344 0
DWIDTH 9 0
BBX 8 23 1 0
BITMAP
38
38
38
00
FF
FF
FF
E0
E0
E0
E0
E0
FE
FE
FE
E0
E0
E0
E0
E0
E0
E0
E0
ENDCHAR
STARTCHAR uni1E1F
ENCODING 7711
SWIDTH 344 0
DWIDTH 9 0
BBX 8 23 1 0
BITMAP
38
38
38
00
FF
FF
FF
E0
E0
E0
E0
E0
FE
FE
FE
E0
E0
E0
E0
E0
E0
E0
E0
ENDCHAR
STARTCHAR uni1E40
ENCODING 7744
SWIDTH 538 0
DWIDTH 14 0
BBX 12 23 1 0
BITMAP
0600
0600
0600
0000
F0F0
F0F0
F0F0
F9F0
F9F0
F9F0
F9F0
F9F0
F9F0
F9F0
FF70
EF70
EF70
EF70
EF70
EF70
EE70
EE70
E670
ENDCHAR
STARTCHAR uni1E41
ENCODING 7745
SWIDTH 538 0
DWIDTH 14 0
BBX 12 23 1 0
BITMAP
0600
0600
0600
0000
F0F0
F0F0
F0F0
F9F0
F9F0
F9F0
F9F0
F9F0
F9F0
F9F0
FF70
EF70
EF70
EF70
EF70
EF70
EE70
EE70
E670
ENDCHAR
STARTCHAR uni1E56
ENCODING 7766
SWIDTH 386 0
DWIDTH 10 0
BBX 9 23 1 0
BITMAP
1800
1800
1800
0000
FE00
FF00
FF00
E300
E380
E380
E380
E380
E700
FF00
FE00
F800
E000
E000
E000
E000
E000
E000
E000
ENDCHAR
STARTCHAR uni1E57
ENCODING 7767
SWIDTH 386 0
DWIDTH 10 0
BBX 9 23 1 0
BITMAP
1800
1800
1800
0000
FE00
FF00
FF00
E300
E380
E380
E380
E380
E700
FF00
FE00
F800
E000
E000
E000
E000
E000
E000
E000
ENDCHAR
STARTCHAR uni1E60
ENCODING 7776
SWIDTH 372 0
DWIDTH 10 0
BBX 8 23 1 0
BITMAP
18
18
18
00
3C
FE
FF
E7
C7
E0
E0
F0
78
3C
1E
0F
07
C7
C7
C7
FF
FE
7C
ENDCHAR
STARTCHAR uni1E61
ENCODING 7777
SWIDTH 372 0
DWIDTH 10 0
BBX 8 23 1 0
BITMAP
18
18
18
00
3C
FE
FF
E7
C7
E0
E0
F0
78
3C
1E
0F
07
C7
C7
C7
FF
FE
7C
ENDCHAR
STARTCHAR uni1E6A
ENCODING 7786
SWIDTH 364 0
DWIDTH 9 0
BBX 9 23 0 0
BITMAP
1C00
1C00
1C00
0000
FF80
FF80
FF80
1C00
1C00
1C00
1C00
1C00
1C00
1C00
1C00
1C00
1C00
1C00
1C00
1C00
1C00
1C00
1C00
ENDCHAR
STARTCHAR uni1E6B
ENCODING 7787
SWIDTH 364 0
DWIDTH 9 0
BBX 9 23 0 0
BITMAP
1C00
1C00
1C00
0000
FF80
FF80
FF80
1C00
1C00
1C00
1C00
1C00
1C00
1C00
1C00
1C00
1C00
1C00
1C00
1C00
1C00
1C00
1C00
ENDCHAR
STARTCHAR Wgrave
ENCODING 7808
SWIDTH 557 0
DWIDTH 14 0
BBX 14 23 0 0
BITMAP
0E00
0700
0380
0000
E38C
639C
639C
679C
779C
779C
77D8
76D8
76D8
76D8
76D8
36D8
36D8
36F8
3EF8
3CF8
3CF8
3C70
3C70
ENDCHAR
STARTCHAR wgrave
ENCODING 7809
SWIDTH 557 0
DWIDTH 14 0
BBX 14 23 0 0
BITMAP
0E00
0700
0380
0000
E38C
639C
639C
679C
779C
779C
77D8
76D8
76D8
76D8
76D8
36D8
36D8
36F8
3EF8
3CF8
3CF8
3C70
3C70
ENDCHAR
STARTCHAR Wacute
ENCODING 7810
SWIDTH 557 0
DWIDTH 14 0
BBX 14 23 0 0
BITMAP
01E0
0180
0300
0000
E38C
639C
639C
679C
779C
779C
77D8
76D8
76D8
76D8
76D8
36D8
36D8
36F8
3EF8
3CF8
3CF8
3C70
3C70
ENDCHAR
STARTCHAR wacute
ENCODING 7811
SWIDTH 557 0
DWIDTH 14 0
BBX 14 23 0 0
BITMAP
01E0
0180
0300
0000
E38C
639C
639C
679C
779C
779C
77D8
76D8
76D8
76D8
76D8
36D8
36D8
36F8
3EF8
3CF8
3CF8
3C70
3C70
ENDCHAR
STARTCHAR Wdieresis
ENCODING 7812
SWIDTH 557 0
DWIDTH 14 0
BBX 14 23 0 0
BITMAP
0EE0
0EE0
0EE0
0000
E38C
639C
639C
679C
779C
779C
77D8
76D8
76D8
76D8
76D8
36D8
36D8
36F8
3EF8
3CF8
3CF8
3C70
3C70
ENDCHAR
STARTCHAR wdieresis
ENCODING 7813
SWIDTH 557 0
DWIDTH 14 0
BBX 14 23 0 0
BITMAP
0EE0
0EE0
0EE0
0000
E38C
639C
639C
679C
779C
779C
77D8
76D8
76D8
76D8
76D8
36D8
36D8
36F8
3EF8
3CF8
3CF8
3C70
3C70
ENDCHAR
STARTCHAR uni1E9E
ENCODING 7838
SWIDTH 407 0
DWIDTH 11 0
BBX 9 19 1 0
BITMAP
FF80
FF80
FF80
E300
E700
E700
EE00
EE00
EF00
EF80
E380
E380
E380
E380
E380
E380
EF80
EF00
EE00
ENDCHAR
STARTCHAR Ygrave
ENCODING 7922
SWIDTH 394 0
DWIDTH 10 0
BBX 10 23 0 0
BITMAP
3800
1C00
0E00
0000
E1C0
71C0
7180
7380
3B80
3B00
3F00
1F00
1E00
1E00
0E00
0E00
0E00
0E00
0E00
0E00
0E00
0E00
0E00
ENDCHAR
STARTCHAR ygrave
ENCODING 7923
SWIDTH 394 0
DWIDTH 10 0
BBX 10 23 0 0
BITMAP
3800
1C00
0E00
0000
E1C0
71C0
7180
7380
3B80
3B00
3F00
1F00
1E00
1E00
0E00
0E00
0E00
0E00
0E00
0E00
0E00
0E00
0E00
ENDCHAR
STARTCHAR uni2002
ENCODING 8194
SWIDTH 300 0
DWIDTH 8 0
BBX 1 1 0 0
BITMAP
00
ENDCHAR
STARTCHAR uni2003
ENCODING 8195
SWIDTH 500 0
DWIDTH 13 0
BBX 1 1 0 0
BITMAP
00
ENDCHAR
STARTCHAR uni2007
ENCODING 8199
SWIDTH 400 0
DWIDTH 10 0
BBX 1 1 0 0
BITMAP
00
ENDCHAR
STARTCHAR uni2008
ENCODING 8200
SWIDTH 188 0
DWIDTH 5 0
BBX 1 1 0 0
BITMAP
00
ENDCHAR
STARTCHAR uni200B
ENCODING 8203
SWIDTH 0 0
DWIDTH 0 0
BBX 1 1 0 0
BITMAP
00
ENDCHAR
STARTCHAR figuredash
ENCODING 8210
SWIDTH 400 0
DWIDTH 10 0
BBX 10 3 0 8
BITMAP
FFC0
FFC0
FFC0
ENDCHAR
STARTCHAR endash
ENCODING 8211
SWIDTH 300 0
DWIDTH 8 0
BBX 8 3 0 8
BITMAP
FF
FF
FF
ENDCHAR
STARTCHAR emdash
ENCODING 8212
SWIDTH 500 0
DWIDTH 13 0
BBX 13 3 0 8
BITMAP
FFF8
FFF8
FFF8
ENDCHAR
STARTCHAR quoteleft
ENCODING 8216
SWIDTH 188 0
DWIDTH 5 0
BBX 3 6 1 13
BITMAP
60
40
C0
E0
E0
E0
ENDCHAR
STARTCHAR quoteright
ENCODING 8217
SWIDTH 188 0
DWIDTH 5 0
BBX 3 6 1 13
BITMAP
E0
E0
E0
40
C0
80
ENDCHAR
STARTCHAR quotesinglbase
ENCODING 8218
SWIDTH 188 0
DWIDTH 5 0
BBX 3 6 1 -3
BITMAP
E0
E0
E0
60
40
C0
ENDCHAR
STARTCHAR quotedblleft
ENCODING 8220
SWIDTH 336 0
DWIDTH 9 0
BBX 7 6 1 13
BITMAP
66
44
CC
EE
EE
EE
ENDCHAR
STARTCHAR quotedblright
ENCODING 8221
SWIDTH 336 0
DWIDTH 9 0
BBX 7 6 1 13
BITMAP
EE
EE
EE
44
CC
88
ENDCHAR
STARTCHAR quotedblbase
ENCODING 8222
SWIDTH 336 0
DWIDTH 9 0
BBX 7 6 1 -3
BITMAP
EE
EE
EE
44
CC
88
ENDCHAR
STARTCHAR dagger
ENCODING 8224
SWIDTH 400 0
DWIDTH 10 0
BBX 9 21 1 -2
BITMAP
1C00
1C00
1C00
1C00
FF80
FF80
FF80
1C00
1C00
1C00
1C00
1C00
1C00
1C00
1C00
1C00
1C00
1C00
1C00
1C00
1C00
ENDCHAR
STARTCHAR daggerdbl
ENCODING 8225
SWIDTH 400 0
DWIDTH 10 0
BBX 9 21 1 -2
BITMAP
1C00
1C00
1C00
1C00
FF80
FF80
FF80
1C00
1C00
1C00
1C00
1C00
1C00
FF80
FF80
FF80
1C00
1C00
1C00
1C00
1C00
ENDCHAR
STARTCHAR bullet
ENCODING 8226
SWIDTH 300 0
DWIDTH 8 0
BBX 6 6 1 6
BITMAP
78
F8
FC
FC
FC
78
ENDCHAR
STARTCHAR ellipsis
ENCODING 8230
SWIDTH 500 0
DWIDTH 13 0
BBX 11 3 1 0
BITMAP
EEE0
EEE0
EEE0
ENDCHAR
STARTCHAR perthousand
ENCODING 8240
SWIDTH 845 0
DWIDTH 22 0
BBX 20 19 1 0
BITMAP
706000
C86000
C8C000
C8C000
C88000
C98000
C98000
CB0000
DB0000
2320C0
06D930
06C930
04C930
0CC930
0CC930
08C930
18D930
18F9F0
3071E0
ENDCHAR
STARTCHAR guilsinglleft
ENCODING 8249
SWIDTH 188 0
DWIDTH 5 0
BBX 4 6 0 6
BITMAP
30
70
E0
60
70
30
ENDCHAR
STARTCHAR guilsinglright
ENCODING 8250
SWIDTH 188 0
DWIDTH 5 0
BBX 5 6 0 6
BITMAP
E0
70
38
30
70
E0
ENDCHAR
STARTCHAR fraction
ENCODING 8260
SWIDTH 89 0
DWIDTH 2 0
BBX 9 19 -3 0
BITMAP
0180
0300
0300
0600
0600
0600
0C00
0C00
0800
1800
1800
3000
3000
3000
6000
6000
4000
C000
C000
ENDCHAR
STARTCHAR uni2070
ENCODING 8304
SWIDTH 282 0
DWIDTH 7 0
BBX 5 12 1 9
BITMAP
70
F8
C8
C8
C8
C8
C8
C8
C8
C8
F8
70
ENDCHAR
STARTCHAR uni2074
ENCODING 8308
SWIDTH 282 0
DWIDTH 7 0
BBX 6 12 1 9
BITMAP
18
38
38
38
78
58
D8
D8
FC
FC
18
18
ENDCHAR
STARTCHAR uni2075
ENCODING 8309
SWIDTH 282 0
DWIDTH 7 0
BBX 5 12 1 9
BITMAP
F8
F8
C0
C0
F8
F8
C8
08
08
D8
F8
70
ENDCHAR
STARTCHAR uni2076
ENCODING 8310
SWIDTH 282 0
DWIDTH 7 0
BBX 5 12 1 9
BITMAP
70
F8
C8
C0
D0
F8
C8
C8
C8
C8
F8
70
ENDCHAR
STARTCHAR uni2077
ENCODING 8311
SWIDTH 282 0
DWIDTH 7 0
BBX 5 12 1 9
BITMAP
F8
F8
18
18
18
30
30
30
20
60
60
60
ENDCHAR
STARTCHAR uni2078
ENCODING 8312
SWIDTH 282 0
DWIDTH 7 0
BBX 6 12 1 9
BITMAP
70
F8
C8
CC
C8
F8
F8
C8
CC
C8
F8
70
ENDCHAR
STARTCHAR uni2079
ENCODING 8313
SWIDTH 282 0
DWIDTH 7 0
BBX 5 12 1 9
BITMAP
70
F8
C8
C8
C8
D8
F8
48
08
D8
F8
70
ENDCHAR
STARTCHAR uni2080
ENCODING 8320
SWIDTH 282 0
DWIDTH 7 0
BBX 5 12 1 -2
BITMAP
70
F8
C8
C8
C8
C8
C8
C8
C8
C8
F8
70
ENDCHAR
STARTCHAR uni2081
ENCODING 8321
SWIDTH 282 0
DWIDTH 7 0
BBX 3 12 2 -2
BITMAP
20
60
E0
E0
60
60
60
60
60
60
60
60
ENDCHAR
STARTCHAR uni2082
ENCODING 8322
SWIDTH 282 0
DWIDTH 7 0
BBX 5 12 1 -2
BITMAP
70
F8
C8
C8
18
18
30
60
C0
C0
F8
F8
ENDCHAR
STARTCHAR uni2083
ENCODING 8323
SWIDTH 282 0
DWIDTH 7 0
BBX 5 12 1 -2
BITMAP
70
F8
D8
D8
18
30
38
18
D8
D8
F8
70
ENDCHAR
STARTCHAR uni2084
ENCODING 8324
SWIDTH 282 0
DWIDTH 7 0
BBX 6 12 1 -2
BITMAP
18
38
38
38
78
58
D8
D8
FC
FC
18
18
ENDCHAR
STARTCHAR uni2085
ENCODING 8325
SWIDTH 282 0
DWIDTH 7 0
BBX 5 12 1 -2
BITMAP
F8
F8
C0
C0
F8
F8
C8
08
08
C8
F8
70
ENDCHAR
STARTCHAR uni2086
ENCODING 8326
SWIDTH 282 0
DWIDTH 7 0
BBX 5 12 1 -2
BITMAP
70
F8
C8
C0
D0
F8
C8
C8
C8
C8
F8
70
ENDCHAR
STARTCHAR uni2087
ENCODING 8327
SWIDTH 282 0
DWIDTH 7 0
BBX 5 12 1 -2
BITMAP
F8
F8
18
18
18
30
30
30
20
60
60
60
ENDCHAR
STARTCHAR uni2088
ENCODING 8328
SWIDTH 282 0
DWIDTH 7 0
BBX 6 12 1 -2
BITMAP
70
F8
C8
CC
C8
F8
F8
C8
CC
C8
F8
70
ENDCHAR
STARTCHAR uni2089
ENCODING 8329
SWIDTH 282 0
DWIDTH 7 0
BBX 5 12 1 -2
BITMAP
70
F8
C8
C8
C8
D8
F8
48
08
D8
F8
70
ENDCHAR
STARTCHAR Euro
ENCODING 8364
SWIDTH 400 0
DWIDTH 10 0
BBX 9 19 1 0
BITMAP
3E00
7F00
7F00
E380
E380
E380
E000
FE00
E000
E000
FE00
E000
E000
E380
E380
E380
7F00
7F00
3E00
ENDCHAR
STARTCHAR uni20B9
ENCODING 8377
SWIDTH 400 0
DWIDTH 10 0
BBX 9 18 1 0
BITMAP
FF80
FF80
1E00
0E00
FF80
FF80
0E00
1E00
FC00
F800
F000
7000
7800
3C00
1C00
0E00
0F00
0780
ENDCHAR
STARTCHAR uni20BF
ENCODING 8383
SWIDTH 400 0
DWIDTH 10 0
BBX 10 21 0 -1
BITMAP
3600
FE00
FF80
FF80
3380
31C0
31C0
3180
3380
3F80
3F00
3F80
31C0
31C0
31C0
31C0
FFC0
FF80
FF00
3600
3600
ENDCHAR
STARTCHAR uni2113
ENCODING 8467
SWIDTH 412 0
DWIDTH 11 0
BBX 10 19 0 0
BITMAP
0200
1F80
1FC0
39C0
39C0
39C0
39C0
3980
3B80
3F00
3F00
3C00
F800
79C0
79C0
39C0
1FC0
1FC0
0F00
ENDCHAR
STARTCHAR uni2116
ENCODING 8470
SWIDTH 661 0
DWIDTH 17 0
BBX 15 19 1 0
BITMAP
F300
F300
F300
F300
F300
FB00
FB1C
FB3E
FB36
FB36
EF36
EF36
EF36
EF36
EF3E
E71C
E700
E73E
E73E
ENDCHAR
STARTCHAR uni2117
ENCODING 8471
SWIDTH 738 0
DWIDTH 19 0
BBX 18 19 1 0
BITMAP
03E000
0FF800
3C1E00
300700
63E300
C3F180
C33180
C33080
8330C0
83F0C0
83E0C0
C30080
C30180
C30180
630300
700700
3C0E00
1FFC00
07F000
ENDCHAR
STARTCHAR uni2120
ENCODING 8480
SWIDTH 599 0
DWIDTH 16 0
BBX 14 10 1 9
BITMAP
2000
F39C
9B9C
C3BC
E3BC
73EC
1BEC
9B6C
FB6C
F36C
ENDCHAR
STARTCHAR trademark
ENCODING 8482
SWIDTH 598 0
DWIDTH 16 0
BBX 15 9 0 10
BITMAP
FDCE
FDCE
31DE
31DE
31D6
31F6
31F6
31B6
31B6
ENDCHAR
STARTCHAR uni2126
ENCODING 8486
SWIDTH 754 0
DWIDTH 20 0
BBX 17 18 1 0
BITMAP
07F800
1C0C00
380600
700700
700380
600380
E00380
E00380
E00380
600380
600380
700300
300700
180E00
8C1880
C22080
FE3F80
FE3F80
ENDCHAR
STARTCHAR estimated
ENCODING 8494
SWIDTH 821 0
DWIDTH 21 0
BBX 20 19 1 0
BITMAP
01F800
0E0600
180100
300080
6000C0
6000E0
E000E0
E000E0
E000F0
FFFFF0
E00000
E00000
E00000
600000
600000
3000C0
180100
0E0600
03F800
ENDCHAR
STARTCHAR uni2153
ENCODING 8531
SWIDTH 653 0
DWIDTH 17 0
BBX 14 19 2 0
BITMAP
2060
6040
E0C0
60C0
6180
6180
61B0
6378
634C
624C
660C
660C
0C38
0C38
0C0C
184C
184C
107C
3078
ENDCHAR
STARTCHAR uni2154
ENCODING 8532
SWIDTH 653 0
DWIDTH 17 0
BBX 15 19 1 0
BITMAP
7030
F820
C860
C860
18C0
18C0
30D8
61BC
C1A6
C126
FB06
FB06
061C
061C
0606
0C26
0C26
083E
183C
ENDCHAR
STARTCHAR oneeighth
ENCODING 8539
SWIDTH 653 0
DWIDTH 17 0
BBX 14 19 2 0
BITMAP
2060
6040
E0C0
60C0
6180
6180
61B8
637C
636C
62CC
66CC
664C
0C7C
0C7C
0C4C
18CC
18CC
107C
3078
ENDCHAR
STARTCHAR threeeighths
ENCODING 8540
SWIDTH 653 0
DWIDTH 17 0
BBX 15 19 1 0
BITMAP
7030
F820
D860
D860
18C0
38C0
38DC
19BE
19B6
D966
DB66
FB26
763E
063E
0626
0C66
0C66
083E
183C
ENDCHAR
STARTCHAR fiveeighths
ENCODING 8541
SWIDTH 653 0
DWIDTH 17 0
BBX 15 19 1 0
BITMAP
F830
F820
C060
C060
F8C0
F8C0
C8DC
09BE
09B6
D966
FB66
7326
063E
063E
0626
0C66
0C66
083E
183C
ENDCHAR
STARTCHAR seveneighths
ENCODING 8542
SWIDTH 653 0
DWIDTH 17 0
BBX 15 19 1 0
BITMAP
F830
F820
1860
1860
18C0
10C0
30DC
31BE
21B6
6166
6366
6326
063E
063E
0626
0C66
0C66
083E
183C
ENDCHAR
STARTCHAR partialdiff
ENCODING 8706
SWIDTH 428 0
DWIDTH 11 0
BBX 9 18 1 0
BITMAP
3F00
7F80
7380
6380
0380
0380
3B80
7F80
F780
E380
E380
E380
E380
E380
E300
FF00
7F00
3C00
ENDCHAR
STARTCHAR emptyset
ENCODING 8709
SWIDTH 734 0
DWIDTH 19 0
BBX 17 17 1 1
BITMAP
03E200
0FFB80
1FFF00
3C1E00
781F00
703F00
607300
E0E380
E1C380
E38380
670380
7E0700
7C0F00
3C1E00
7FFE00
EFF800
23F000
ENDCHAR
STARTCHAR uni2206
ENCODING 8710
SWIDTH 615 0
DWIDTH 16 0
BBX 14 18 1 0
BITMAP
0100
0380
0380
0780
05C0
05C0
08C0
08E0
18E0
1060
1070
2030
2030
2038
4018
4018
FFFC
FFFC
ENDCHAR
STARTCHAR product
ENCODING 8719
SWIDTH 465 0
DWIDTH 12 0
BBX 10 22 1 -3
BITMAP
FFC0
FFC0
FFC0
E1C0
E1C0
E1C0
E1C0
E1C0
E1C0
E1C0
E1C0
E1C0
E1C0
E1C0
E1C0
E1C0
E1C0
E1C0
E1C0
E1C0
E1C0
E1C0
ENDCHAR
STARTCHAR summation
ENCODING 8721
SWIDTH 411 0
DWIDTH 11 0
BBX 9 23 1 -4
BITMAP
FF80
FF80
FF80
E000
F000
7000
3800
3800
1C00
1C00
0E00
0E00
0E00
1C00
1C00
3800
3800
7000
7000
E000
FF80
FF80
FF80
ENDCHAR
STARTCHAR minus
ENCODING 8722
SWIDTH 400 0
DWIDTH 10 0
BBX 9 2 1 8
BITMAP
FF80
FF80
ENDCHAR
STARTCHAR uni2215
ENCODING 8725
SWIDTH 400 0
DWIDTH 10 0
BBX 10 18 0 0
BITMAP
00C0
0180
0180
0380
0300
0300
0600
0600
0E00
0C00
1C00
1800
1800
3000
3000
7000
6000
E000
ENDCHAR
STARTCHAR uni2219
ENCODING 8729
SWIDTH 220 0
DWIDTH 6 0
BBX 4 3 1 7
BITMAP
F0
F0
F0
ENDCHAR
STARTCHAR radical
ENCODING 8730
SWIDTH 475 0
DWIDTH 12 0
BBX 12 20 0 -2
BITMAP
0030
0070
0060
0060
0060
00E0
00C0
00C0
F0C0
F8C0
3980
3980
1980
1980
1F80
1F00
0F00
0F00
0F00
0E00
ENDCHAR
STARTCHAR infinity
ENCODING 8734
SWIDTH 643 0
DWIDTH 17 0
BBX 15 9 1 5
BITMAP
3878
7EFC
E7CE
C386
C386
C386
E7CE
7EFC
3878
ENDCHAR
STARTCHAR integral
ENCODING 8747
SWIDTH 400 0
DWIDTH 10 0
BBX 8 24 1 -4
BITMAP
0F
1F
1F
1C
1C
1C
1C
1C
1C
1C
1C
1C
1C
1C
1C
1C
1C
1C
1C
1C
1C
F8
F8
F0
ENDCHAR
STARTCHAR approxequal
ENCODING 8776
SWIDTH 400 0
DWIDTH 10 0
BBX 10 8 0 5
BITMAP
3CC0
7FC0
C780
0000
3880
7CC0
EF80
4300
ENDCHAR
STARTCHAR notequal
ENCODING 8800
SWIDTH 400 0
DWIDTH 10 0
BBX 8 11 1 4
BITMAP
03
03
06
FF
FF
1C
18
FF
FF
60
E0
ENDCHAR
STARTCHAR lessequal
ENCODING 8804
SWIDTH 400 0
DWIDTH 10 0
BBX 8 10 1 4
BITMAP
01
0F
7E
F0
F8
3F
07
00
FF
FF
ENDCHAR
STARTCHAR greaterequal
ENCODING 8805
SWIDTH 400 0
DWIDTH 10 0
BBX 8 10 1 4
BITMAP
C0
F8
3F
07
1F
FC
E0
00
FF
FF
ENDCHAR
STARTCHAR lozenge
ENCODING 9674
SWIDTH 400 0
DWIDTH 10 0
BBX 9 19 1 0
BITMAP
0800
1800
1C00
3C00
3C00
7600
6600
6300
C300
C380
C380
E300
6700
6600
3600
3C00
1C00
1800
0800
ENDCHAR
STARTCHAR circle
ENCODING 9675
SWIDTH 738 0
DWIDTH 19 0
BBX 18 19 1 0
BITMAP
008000
0FF800
1C1C00
300600
600300
C00180
C00180
C00180
C000C0
8000C0
8000C0
C000C0
C00180
C00180
600300
700300
380E00
1FFC00
03F000
ENDCHAR
STARTCHAR uniE0FF
ENCODING 57599
SWIDTH 500 0
DWIDTH 13 0
BBX 1 1 0 0
BITMAP
00
ENDCHAR
STARTCHAR uniEFFD
ENCODING 61437
SWIDTH 500 0
DWIDTH 13 0
BBX 1 1 0 0
BITMAP
00
ENDCHAR
STARTCHAR uniF000
ENCODING 61440
SWIDTH 500 0
DWIDTH 13 0
BBX 1 1 0 0
BITMAP
00
ENDCHAR
STARTCHAR uniF8FF
ENCODING 63743
SWIDTH 634 0
DWIDTH 16 0
BBX 15 15 1 1
BITMAP
01E0
01E0
01E0
1FFE
7FFE
7FFE
FFFE
F1E0
F1E0
F1E0
F1E0
FFE0
7FC0
7FC0
1F00
ENDCHAR
STARTCHAR .notdef
ENCODING -1
SWIDTH 738 0
DWIDTH 19 0
BBX 17 18 1 0
BITMAP
FFFF80
E00380
F00380
D80580
C80D80
C41980
C63180
C36180
C1C180
C1C180
C16180
C23180
C41180
CC0980
D80D80
F00780
E00380
FFFF80
ENDCHAR
STARTCHAR NULL
ENCODING -1
SWIDTH 0 0
DWIDTH 0 0
BBX 1 1 0 0
BITMAP
00
ENDCHAR
STARTCHAR uni00A40301
ENCODING -1
SWIDTH 265 0
DWIDTH 7 0
BBX 7 23 0 0
BITMAP
0E
0C
18
00
1C
1C
1C
1C
1C
1C
1C
1C
1C
1C
1C
1C
1C
1C
1C
1C
FC
F8
F0
ENDCHAR
STARTCHAR i.loclTRK
ENCODING -1
SWIDTH 192 0
DWIDTH 5 0
BBX 3 23 1 0
BITMAP
E0
E0
E0
00
E0
E0
E0
E0
E0
E0
E0
E0
E0
E0
E0
E0
E0
E0
E0
E0
E0
E0
E0
ENDCHAR
STARTCHAR uni006A0301
ENCODING -1
SWIDTH 265 0
DWIDTH 7 0
BBX 7 23 0 0
BITMAP
0E
0C
18
00
1C
1C
1C
1C
1C
1C
1C
1C
1C
1C
1C
1C
1C
1C
1C
1C
FC
F8
F0
ENDCHAR
STARTCHAR zero.lf
ENCODING -1
SWIDTH 400 0
DWIDTH 10 0
BBX 9 19 1 0
BITMAP
3C00
7F00
FF00
E300
E380
E380
E380
E380
E380
E380
E380
E380
E380
E380
E380
E300
FF00
7F00
3C00
ENDCHAR
STARTCHAR one.lf
ENCODING -1
SWIDTH 291 0
DWIDTH 8 0
BBX 6 19 0 0
BITMAP
0C
0C
FC
FC
FC
1C
1C
1C
1C
1C
1C
1C
1C
1C
1C
1C
1C
1C
1C
ENDCHAR
STARTCHAR two.lf
ENCODING -1
SWIDTH 372 0
DWIDTH 10 0
BBX 8 19 1 0
BITMAP
3C
FE
FF
C7
C7
C7
C7
07
0E
1C
3C
78
70
E0
E0
C0
FF
FF
FF
ENDCHAR
STARTCHAR three.lf
ENCODING -1
SWIDTH 374 0
DWIDTH 10 0
BBX 8 19 1 0
BITMAP
3C
FE
FF
C7
C7
07
07
3E
3C
3E
07
07
07
C7
C7
C7
FF
FE
7C
ENDCHAR
STARTCHAR four.lf
ENCODING -1
SWIDTH 398 0
DWIDTH 10 0
BBX 10 19 0 0
BITMAP
0780
0780
0780
0F80
0F80
1F80
1B80
1B80
3B80
3380
7380
7380
6380
FFC0
FFC0
FFC0
0380
0380
0380
ENDCHAR
STARTCHAR five.lf
ENCODING -1
SWIDTH 382 0
DWIDTH 10 0
BBX 8 19 1 0
BITMAP
FF
FF
FF
E0
E0
E0
FE
FF
FF
E7
C7
07
07
C7
C7
E7
FF
7E
3C
ENDCHAR
STARTCHAR six.lf
ENCODING -1
SWIDTH 393 0
DWIDTH 10 0
BBX 9 19 1 0
BITMAP
3C00
7F00
FF00
E300
E300
E000
E000
EE00
FF00
FF00
E380
E380
E380
E380
E380
E300
FF00
7F00
3C00
ENDCHAR
STARTCHAR seven.lf
ENCODING -1
SWIDTH 356 0
DWIDTH 9 0
BBX 9 19 0 0
BITMAP
FF80
FF80
FF80
0380
0300
0700
0700
0700
0E00
0E00
0E00
0C00
1C00
1C00
1C00
3800
3800
3800
7800
ENDCHAR
STARTCHAR eight.lf
ENCODING -1
SWIDTH 396 0
DWIDTH 10 0
BBX 9 19 1 0
BITMAP
3E00
7F00
FF00
E300
E380
E380
E300
FF00
7E00
FF00
E700
E380
E380
E380
E380
E380
FF00
7F00
3E00
ENDCHAR
STARTCHAR nine.lf
ENCODING -1
SWIDTH 393 0
DWIDTH 10 0
BBX 8 19 1 0
BITMAP
3C
7E
FF
E7
E7
E7
E7
E7
E7
FF
FF
7F
07
07
C7
E7
FF
7F
3C
ENDCHAR
STARTCHAR zero.dnom
ENCODING -1
SWIDTH 282 0
DWIDTH 7 0
BBX 5 13 1 0
BITMAP
70
F8
D8
C8
C8
C8
C8
C8
C8
C8
C8
F8
70
ENDCHAR
STARTCHAR one.dnom
ENCODING -1
SWIDTH 282 0
DWIDTH 7 0
BBX 3 12 2 0
BITMAP
20
60
E0
60
60
60
60
60
60
60
60
60
ENDCHAR
STARTCHAR two.dnom
ENCODING -1
SWIDTH 282 0
DWIDTH 7 0
BBX 5 12 1 0
BITMAP
70
F8
C8
C8
18
18
30
60
C0
C0
F8
F8
ENDCHAR
STARTCHAR three.dnom
ENCODING -1
SWIDTH 282 0
DWIDTH 7 0
BBX 5 13 1 0
BITMAP
20
F8
D8
D8
18
18
30
38
18
D8
D8
F8
70
ENDCHAR
STARTCHAR four.dnom
ENCODING -1
SWIDTH 282 0
DWIDTH 7 0
BBX 6 12 1 0
BITMAP
18
38
38
78
78
58
D8
D8
FC
FC
18
18
ENDCHAR
STARTCHAR five.dnom
ENCODING -1
SWIDTH 282 0
DWIDTH 7 0
BBX 5 12 1 0
BITMAP
F8
F8
C0
D0
F8
D8
C8
08
C8
C8
F8
70
ENDCHAR
STARTCHAR six.dnom
ENCODING -1
SWIDTH 282 0
DWIDTH 7 0
BBX 5 13 1 0
BITMAP
70
F8
C8
C8
C0
F8
F8
C8
C8
C8
C8
F8
70
ENDCHAR
STARTCHAR seven.dnom
ENCODING -1
SWIDTH 282 0
DWIDTH 7 0
BBX 5 12 1 0
BITMAP
F8
F8
18
18
18
10
30
30
20
60
60
60
ENDCHAR
STARTCHAR eight.dnom
ENCODING -1
SWIDTH 282 0
DWIDTH 7 0
BBX 6 13 1 0
BITMAP
70
F8
D8
CC
C8
D8
F8
F8
C8
CC
C8
F8
70
ENDCHAR
STARTCHAR nine.dnom
ENCODING -1
SWIDTH 282 0
DWIDTH 7 0
BBX 5 13 1 0
BITMAP
70
F8
D8
C8
C8
C8
D8
F8
68
08
D8
F8
70
ENDCHAR
STARTCHAR zero.numr
ENCODING -1
SWIDTH 282 0
DWIDTH 7 0
BBX 5 13 1 6
BITMAP
70
F8
C8
C8
C8
C8
C8
C8
C8
C8
D8
F8
70
ENDCHAR
STARTCHAR one.numr
ENCODING -1
SWIDTH 282 0
DWIDTH 7 0
BBX 3 12 2 7
BITMAP
20
60
E0
60
60
60
60
60
60
60
60
60
ENDCHAR
STARTCHAR two.numr
ENCODING -1
SWIDTH 282 0
DWIDTH 7 0
BBX 5 12 1 7
BITMAP
70
F8
C8
C8
18
18
30
60
C0
C0
F8
F8
ENDCHAR
STARTCHAR three.numr
ENCODING -1
SWIDTH 282 0
DWIDTH 7 0
BBX 5 13 1 6
BITMAP
70
F8
D8
D8
18
38
38
18
18
D8
D8
F8
70
ENDCHAR
STARTCHAR four.numr
ENCODING -1
SWIDTH 282 0
DWIDTH 7 0
BBX 6 12 1 7
BITMAP
18
38
38
78
78
58
D8
98
FC
FC
18
18
ENDCHAR
STARTCHAR five.numr
ENCODING -1
SWIDTH 282 0
DWIDTH 7 0
BBX 5 12 1 7
BITMAP
F8
F8
C0
C0
F8
F8
C8
08
08
D8
F8
70
ENDCHAR
STARTCHAR six.numr
ENCODING -1
SWIDTH 282 0
DWIDTH 7 0
BBX 5 13 1 6
BITMAP
70
F8
C8
C0
C0
F8
F8
C8
C8
C8
C8
F8
70
ENDCHAR
STARTCHAR seven.numr
ENCODING -1
SWIDTH 282 0
DWIDTH 7 0
BBX 5 12 1 7
BITMAP
F8
F8
18
18
18
10
30
30
20
60
60
60
ENDCHAR
STARTCHAR eight.numr
ENCODING -1
SWIDTH 282 0
DWIDTH 7 0
BBX 6 13 1 6
BITMAP
70
F8
C8
CC
C8
F8
78
D8
C8
CC
D8
F8
70
ENDCHAR
STARTCHAR nine.numr
ENCODING -1
SWIDTH 282 0
DWIDTH 7 0
BBX 5 13 1 6
BITMAP
70
F8
D8
C8
C8
D8
F8
68
08
08
D8
F8
70
ENDCHAR
STARTCHAR uni030C.alt
ENCODING -1
SWIDTH 0 0
DWIDTH 0 0
BBX 2 6 -1 13
BITMAP
C0
C0
C0
C0
C0
80
ENDCHAR
ENDFONT
